<?xml version="1.0" encoding="UTF-8" standalone="no"?>
<svg
   xmlns:dc="http://purl.org/dc/elements/1.1/"
   xmlns:cc="http://creativecommons.org/ns#"
   xmlns:rdf="http://www.w3.org/1999/02/22-rdf-syntax-ns#"
   xmlns:svg="http://www.w3.org/2000/svg"
   xmlns="http://www.w3.org/2000/svg"
   xmlns:sodipodi="http://sodipodi.sourceforge.net/DTD/sodipodi-0.dtd"
   xmlns:inkscape="http://www.inkscape.org/namespaces/inkscape"
   width="2977.23px"
   height="4208.47px"
   viewBox="0 0 2977.23 4208.47"
   version="1.2"
   id="svg1157"
   sodipodi:docname="rhythmia-1.svg"
   inkscape:version="1.0rc1 (09960d6, 2020-04-09)">
  <metadata
     id="metadata1163">
    <rdf:RDF>
      <cc:Work
         rdf:about="">
        <dc:format>image/svg+xml</dc:format>
        <dc:type
           rdf:resource="http://purl.org/dc/dcmitype/StillImage" />
      </cc:Work>
    </rdf:RDF>
  </metadata>
  <defs
     id="defs1161" />
  <sodipodi:namedview
     inkscape:document-rotation="0"
     pagecolor="#ffffff"
     bordercolor="#666666"
     borderopacity="1"
     objecttolerance="10"
     gridtolerance="10"
     guidetolerance="10"
     inkscape:pageopacity="0"
     inkscape:pageshadow="2"
     inkscape:window-width="1440"
     inkscape:window-height="813"
     id="namedview1159"
     showgrid="false"
     showguides="true"
     inkscape:guide-bbox="true"
     inkscape:zoom="0.24319316"
     inkscape:cx="776.37221"
     inkscape:cy="1143.3403"
     inkscape:window-x="-170"
     inkscape:window-y="25"
     inkscape:window-maximized="0"
     inkscape:current-layer="svg1157">
    <sodipodi:guide
       position="214.576,3622.407"
       orientation="1,0"
       id="guide1173" />
    <sodipodi:guide
       position="721.34764,3622.407"
       orientation="1,0"
       id="guide1175" />
    <sodipodi:guide
       position="1231.0391,3622.407"
       orientation="1,0"
       id="guide1177" />
    <sodipodi:guide
       position="1740.3029,3630.107"
       orientation="1,0"
       id="guide1179" />
    <sodipodi:guide
       position="2250.305,3622.407"
       orientation="1,0"
       id="guide1181" />
    <sodipodi:guide
       position="2761.8,3667.552"
       orientation="1,0"
       id="guide1183" />
    <sodipodi:guide
       position="214.576,3622.407"
       orientation="0,-1"
       id="guide1187" />
    <sodipodi:guide
       inkscape:color="rgb(0,0,255)"
       inkscape:locked="false"
       inkscape:label=""
       position="212.598,3462.4071"
       orientation="0,1"
       id="guide1189" />
    <sodipodi:guide
       inkscape:color="rgb(0,0,255)"
       inkscape:locked="false"
       inkscape:label=""
       position="212.598,3302.4071"
       orientation="0,1"
       id="guide1191" />
    <sodipodi:guide
       inkscape:color="rgb(0,0,255)"
       inkscape:locked="false"
       inkscape:label=""
       position="214.576,3142.4071"
       orientation="0,1"
       id="guide1193" />
    <sodipodi:guide
       inkscape:color="rgb(0,0,255)"
       inkscape:locked="false"
       inkscape:label=""
       position="212.598,2982.4071"
       orientation="0,1"
       id="guide1195" />
    <sodipodi:guide
       position="314.57599,3622.4069"
       orientation="-1,0"
       id="guide2314"
       inkscape:label=""
       inkscape:locked="false"
       inkscape:color="rgb(0,0,255)" />
    <sodipodi:guide
       position="821.34798,3622.4069"
       orientation="-1,0"
       id="guide2316"
       inkscape:label=""
       inkscape:locked="false"
       inkscape:color="rgb(0,0,255)" />
    <sodipodi:guide
       position="1331.039,3622.4069"
       orientation="-1,0"
       id="guide2318"
       inkscape:label=""
       inkscape:locked="false"
       inkscape:color="rgb(0,0,255)" />
    <sodipodi:guide
       position="1840.303,3622.4069"
       orientation="-1,0"
       id="guide2320"
       inkscape:label=""
       inkscape:locked="false"
       inkscape:color="rgb(0,0,255)" />
    <sodipodi:guide
       position="2350.3049,3622.4069"
       orientation="-1,0"
       id="guide2322"
       inkscape:label=""
       inkscape:locked="false"
       inkscape:color="rgb(0,0,255)" />
  </sodipodi:namedview>
  <title
     id="title833">rhythms</title>
  <desc
     id="desc835">Generated by MuseScore 3.6.0</desc>
  <path
     inkscape:connector-curvature="0"
     id="path1507"
     d="m 216.908,731.08106 c 0.44,-5.5 0.66,-6.952 1.628,-9.196 1.276,-3.124 3.608,-4.928 6.38,-4.928 1.54,0 2.464,0.484 2.464,1.276 0,0.176 -0.044,0.308 -0.22,0.616 -0.44,0.836 -0.66,1.496 -0.66,2.112 0,1.452 1.144,2.552 2.684,2.552 1.716,0 2.904,-1.32 2.904,-3.168 0,-3.036 -3.036,-5.28 -7.216,-5.28 -3.608,0 -6.996,1.716 -9.108,4.664 -2.42,3.388 -3.74,7.964 -3.74,12.76 0,8.624 4.224,14.212 10.736,14.212 2.86,0 5.236,-0.968 7.084,-2.904 1.892,-1.936 3.036,-4.796 3.036,-7.612 0,-5.192 -3.696,-9.064 -8.712,-9.064 -2.992,0 -5.192,1.188 -7.26,3.96 m 6.028,-1.276 c 3.212,0 5.148,2.508 5.148,6.688 0,5.104 -2.024,8.316 -5.236,8.316 -2.024,0 -3.564,-1.056 -4.62,-3.212 -0.704,-1.364 -1.056,-2.86 -1.056,-4.488 0,-4.532 2.2,-7.304 5.764,-7.304 m 17.721,11.352 c -1.54,0 -2.772,1.232 -2.772,2.728 0,1.54 1.232,2.772 2.728,2.772 1.54,0 2.772,-1.232 2.772,-2.772 0,-1.496 -1.232,-2.728 -2.728,-2.728"
     class="StaffText" />
  <path
     inkscape:connector-curvature="0"
     id="path1509"
     d="m 722.40466,725.75706 1.936,0.308 0.792,-3.476 c 0.66,-2.904 0.968,-3.344 2.244,-3.344 0.22,0 0.572,0 0.968,0.044 5.412,0.264 5.412,0.264 7.436,0.264 0.572,0 1.584,0 2.816,-0.044 l -2.992,6.028 c -3.256,6.468 -3.652,7.26 -4.752,9.988 -1.364,3.3 -2.068,6.072 -2.068,7.92 0,2.024 1.056,3.256 2.772,3.256 2.112,0 2.948,-1.408 2.904,-5.236 -0.22,-6.336 0.572,-9.416 5.28,-19.712 0.66,-1.408 1.32,-2.772 1.98,-4.136 0.044,-0.088 0.176,-0.484 0.44,-1.056 v -1.276 c -2.64,0.22 -4.048,0.308 -6.776,0.308 -3.828,0 -6.864,-0.132 -11.616,-0.484 l -1.364,10.648 m 27.885,15.444 c -1.54,0 -2.772,1.232 -2.772,2.728 0,1.54 1.232,2.772 2.728,2.772 1.54,0 2.772,-1.232 2.772,-2.772 0,-1.496 -1.232,-2.728 -2.728,-2.728"
     class="StaffText" />
  <path
     inkscape:connector-curvature="0"
     id="path1511"
     d="m 1245.5862,728.88106 c 3.256,-1.76 4.84,-3.96 4.84,-6.82 0,-4.048 -3.652,-6.996 -8.756,-6.996 -5.368,0 -9.284,3.52 -9.284,8.404 0,1.892 0.704,3.872 1.936,5.236 0.748,0.88 1.452,1.364 3.036,2.2 -1.936,0.748 -2.772,1.188 -3.74,1.98 -1.716,1.408 -2.684,3.52 -2.684,5.764 0,2.42 1.188,4.796 3.036,6.16 1.716,1.232 4.092,1.892 6.908,1.892 3.256,0 5.984,-0.88 7.832,-2.464 1.848,-1.672 2.992,-4.356 2.992,-7.04 0,-2.508 -0.968,-4.752 -2.772,-6.336 -0.88,-0.792 -1.672,-1.232 -3.344,-1.98 m -4.708,-1.76 c -3.564,-1.276 -5.104,-2.948 -5.104,-5.5 0,-2.816 2.288,-4.664 5.764,-4.664 3.388,0 5.632,2.156 5.632,5.368 0,2.288 -0.88,3.784 -3.388,5.896 l -2.904,-1.1 m 2.552,6.116 c 3.344,1.188 4.752,2.904 4.752,5.808 0,3.52 -2.772,5.764 -7.084,5.764 -4.136,0 -6.512,-2.244 -6.512,-6.16 0,-3.3 1.364,-5.28 4.796,-6.864 l 4.048,1.452 m 16.182,7.92 c -1.54,0 -2.772,1.232 -2.772,2.728 0,1.54 1.232,2.772 2.728,2.772 1.54,0 2.772,-1.232 2.772,-2.772 0,-1.496 -1.232,-2.728 -2.728,-2.728"
     class="StaffText" />
  <path
     inkscape:connector-curvature="0"
     id="path1513"
     d="m 1756.8499,730.77306 c -0.528,5.148 -0.792,6.688 -1.584,8.888 -1.144,3.256 -3.52,5.148 -6.512,5.148 -1.452,0 -2.42,-0.44 -2.42,-1.1 0,-0.176 0.088,-0.396 0.264,-0.748 0.484,-1.012 0.572,-1.32 0.572,-1.936 0,-1.496 -1.1,-2.596 -2.596,-2.596 -1.672,0 -2.992,1.408 -2.992,3.168 0,2.904 3.08,5.104 7.128,5.104 4.004,0 7.436,-1.804 9.592,-5.06 2.156,-3.256 3.344,-7.48 3.344,-12.056 0,-8.844 -4.18,-14.52 -10.78,-14.52 -5.676,0 -10.076,4.664 -10.076,10.604 0,5.28 3.652,9.108 8.712,9.108 3.124,0 4.972,-1.012 7.348,-4.004 m -5.808,-13.816 c 3.256,0 5.412,3.212 5.412,8.184 0,1.804 -0.352,3.432 -1.012,4.444 -1.012,1.584 -2.728,2.552 -4.62,2.552 -3.344,0 -5.236,-2.596 -5.236,-7.26 0,-2.112 0.484,-4.18 1.32,-5.544 1.012,-1.672 2.2,-2.376 4.136,-2.376 m 18.513,24.2 c -1.54,0 -2.772,1.232 -2.772,2.728 0,1.54 1.232,2.772 2.728,2.772 1.54,0 2.772,-1.232 2.772,-2.772 0,-1.496 -1.232,-2.728 -2.728,-2.728"
     class="StaffText" />
  <path
     inkscape:connector-curvature="0"
     id="path1515"
     d="m 2237.9814,715.06506 c -1.496,1.804 -5.544,3.168 -9.592,3.256 v 1.892 h 3.872 c 2.552,0.044 2.816,0.308 2.728,2.772 v 17.644 c 0,2.244 0,2.332 -0.264,2.728 -0.352,0.44 -1.188,0.616 -3.652,0.616 h -2.86 v 2.068 h 17.424 v -2.068 h -2.42 c -2.464,0 -3.3,-0.176 -3.652,-0.616 -0.308,-0.396 -0.308,-0.44 -0.308,-2.728 v -18.172 c 0,-2.464 0.088,-4.532 0.308,-7.392 h -1.584 m 22.781,0 c -6.16,0 -10.648,6.688 -10.648,15.928 0,9.064 4.356,15.708 10.296,15.708 6.16,0 10.472,-6.424 10.472,-15.576 0,-4.664 -0.968,-8.536 -2.816,-11.572 -1.716,-2.772 -4.532,-4.488 -7.304,-4.488 m -0.308,1.892 c 1.452,0 2.86,0.968 3.916,2.728 1.188,2.068 1.584,4.576 1.584,10.604 0,6.204 -0.308,9.108 -1.188,11.044 -1.012,2.156 -2.596,3.476 -4.268,3.476 -1.496,0 -2.86,-0.968 -3.916,-2.728 -1.232,-2.068 -1.584,-4.796 -1.584,-12.012 0,-5.148 0.308,-7.7 1.188,-9.636 1.012,-2.2 2.596,-3.476 4.268,-3.476 m 18.293,24.2 c -1.54,0 -2.772,1.232 -2.772,2.728 0,1.54 1.232,2.772 2.728,2.772 1.54,0 2.772,-1.232 2.772,-2.772 0,-1.496 -1.232,-2.728 -2.728,-2.728"
     class="StaffText" />
  <path
     inkscape:connector-curvature="0"
     id="path1517"
     d="m 199.891,875.08704 c -1.496,1.804 -5.544,3.168 -9.592,3.256 v 1.892 h 3.872 c 2.552,0.044 2.816,0.308 2.728,2.772 v 17.644 c 0,2.244 0,2.332 -0.264,2.728 -0.352,0.44 -1.188,0.616 -3.652,0.616 h -2.86 v 2.068 h 17.424 v -2.068 h -2.42 c -2.464,0 -3.3,-0.176 -3.652,-0.616 -0.308,-0.396 -0.308,-0.44 -0.308,-2.728 v -18.172 c 0,-2.464 0.088,-4.532 0.308,-7.392 h -1.584 m 24.453,0 c -1.496,1.804 -5.544,3.168 -9.592,3.256 v 1.892 h 3.872 c 2.552,0.044 2.816,0.308 2.728,2.772 v 17.644 c 0,2.244 0,2.332 -0.264,2.728 -0.352,0.44 -1.188,0.616 -3.652,0.616 h -2.86 v 2.068 H 232 v -2.068 h -2.42 c -2.464,0 -3.3,-0.176 -3.652,-0.616 -0.308,-0.396 -0.308,-0.44 -0.308,-2.728 v -18.172 c 0,-2.464 0.088,-4.532 0.308,-7.392 h -1.584 m 16.313,26.092 c -1.54,0 -2.772,1.232 -2.772,2.728 0,1.54 1.232,2.772 2.728,2.772 1.54,0 2.772,-1.232 2.772,-2.772 0,-1.496 -1.232,-2.728 -2.728,-2.728"
     class="StaffText" />
  <path
     inkscape:connector-curvature="0"
     id="path1519"
     d="m 709.52366,875.08704 c -1.496,1.804 -5.544,3.168 -9.592,3.256 v 1.892 h 3.872 c 2.552,0.044 2.816,0.308 2.728,2.772 v 17.644 c 0,2.244 0,2.332 -0.264,2.728 -0.352,0.44 -1.188,0.616 -3.652,0.616 h -2.86 v 2.068 h 17.424 v -2.068 h -2.42 c -2.464,0 -3.3,-0.176 -3.652,-0.616 -0.308,-0.396 -0.308,-0.44 -0.308,-2.728 v -18.172 c 0,-2.464 0.088,-4.532 0.308,-7.392 h -1.584 m 32.505,21.472 h -1.936 l -0.44,2.244 c -0.572,2.86 -0.924,3.124 -3.652,3.124 h -9.856 c 3.036,-3.168 4.048,-4.092 6.864,-6.292 4.004,-3.08 5.72,-4.62 6.732,-5.94 1.408,-1.936 2.112,-3.872 2.112,-6.028 0,-5.016 -4.136,-8.58 -9.9,-8.58 -5.588,0 -9.856,3.564 -9.856,8.272 0,2.772 1.408,4.664 3.476,4.664 1.628,0 2.728,-1.1 2.728,-2.684 0,-1.1 -0.616,-2.112 -1.54,-2.508 -1.628,-0.66 -1.716,-0.748 -1.716,-1.32 0,-0.66 0.44,-1.672 1.056,-2.42 1.1,-1.364 2.904,-2.112 4.972,-2.112 3.652,0 5.808,2.244 5.808,5.94 0,3.256 -1.54,6.204 -5.192,10.076 -3.256,3.432 -5.28,5.588 -6.028,6.424 -1.584,1.848 -2.376,2.86 -4.312,5.412 v 1.232 h 19.844 l 0.836,-9.504 m 8.261,4.62 c -1.54,0 -2.772,1.232 -2.772,2.728 0,1.54 1.232,2.772 2.728,2.772 1.54,0 2.772,-1.232 2.772,-2.772 0,-1.496 -1.232,-2.728 -2.728,-2.728"
     class="StaffText" />
  <path
     inkscape:connector-curvature="0"
     id="path1521"
     d="m 1218.8462,875.04304 c -1.496,1.804 -5.544,3.168 -9.592,3.256 v 1.892 h 3.872 c 2.552,0.044 2.816,0.308 2.728,2.772 v 17.644 c 0,2.244 0,2.332 -0.264,2.728 -0.352,0.44 -1.188,0.616 -3.652,0.616 h -2.86 v 2.068 h 17.424 v -2.068 h -2.42 c -2.464,0 -3.3,-0.176 -3.652,-0.616 -0.308,-0.396 -0.308,-0.44 -0.308,-2.728 v -18.172 c 0,-2.464 0.088,-4.532 0.308,-7.392 h -1.584 m 25.509,14.784 c 4.004,-1.452 5.852,-3.696 5.852,-7.216 0,-4.62 -3.52,-7.568 -8.976,-7.568 -5.148,0 -9.064,3.036 -9.064,7.04 0,1.804 1.188,3.08 2.904,3.08 1.54,0 2.596,-1.056 2.596,-2.64 0,-0.968 -0.352,-1.54 -1.364,-2.244 -0.44,-0.308 -0.572,-0.484 -0.572,-0.792 0,-1.232 2.552,-2.552 5.06,-2.552 3.168,0 4.84,1.98 4.84,5.72 0,4.092 -1.672,6.248 -4.796,6.248 -0.396,0 -1.144,-0.044 -1.804,-0.088 -0.352,-0.044 -0.704,-0.044 -0.968,-0.044 -0.924,0 -1.408,0.396 -1.408,1.188 0,0.748 0.44,1.1 1.408,1.1 0.264,0 0.616,0 1.012,-0.044 0.88,-0.044 1.584,-0.044 2.068,-0.044 3.256,0 5.016,2.332 5.016,6.688 0,4.576 -2.2,7.128 -6.16,7.128 -2.772,0 -5.764,-1.496 -5.764,-2.86 0,-0.396 0.088,-0.484 0.924,-0.968 1.232,-0.748 1.716,-1.496 1.716,-2.596 0,-1.584 -1.188,-2.772 -2.772,-2.772 -1.892,0 -3.124,1.54 -3.124,3.872 0,4.268 3.916,7.216 9.548,7.216 6.38,0 10.516,-3.52 10.516,-8.932 0,-4.136 -2.112,-6.644 -6.688,-7.92 m 15.257,11.308 c -1.54,0 -2.772,1.232 -2.772,2.728 0,1.54 1.232,2.772 2.728,2.772 1.54,0 2.772,-1.232 2.772,-2.772 0,-1.496 -1.232,-2.728 -2.728,-2.728"
     class="StaffText" />
  <path
     inkscape:connector-curvature="0"
     id="path1523"
     d="m 1728.7889,875.08704 c -1.496,1.804 -5.544,3.168 -9.592,3.256 v 1.892 h 3.872 c 2.552,0.044 2.816,0.308 2.728,2.772 v 17.644 c 0,2.244 0,2.332 -0.264,2.728 -0.352,0.44 -1.188,0.616 -3.652,0.616 h -2.86 v 2.068 h 17.424 v -2.068 h -2.42 c -2.464,0 -3.3,-0.176 -3.652,-0.616 -0.308,-0.396 -0.308,-0.44 -0.308,-2.728 v -18.172 c 0,-2.464 0.088,-4.532 0.308,-7.392 h -1.584 m 26.477,0 -14.96,20.812 v 2.464 h 12.364 v 2.288 c 0,2.244 0,2.332 -0.264,2.728 -0.352,0.484 -1.188,0.616 -3.696,0.616 h -0.484 v 2.068 h 12.848 v -2.068 h -0.176 c -2.508,0 -3.344,-0.132 -3.696,-0.616 -0.264,-0.396 -0.264,-0.44 -0.264,-2.728 v -2.288 h 5.324 v -2.464 h -5.324 v -12.012 c 0,-5.5 0,-5.632 0.22,-8.8 h -1.892 m -2.596,20.812 h -9.68 l 9.68,-13.332 v 13.332 m 16.885,5.28 c -1.54,0 -2.772,1.232 -2.772,2.728 0,1.54 1.232,2.772 2.728,2.772 1.54,0 2.772,-1.232 2.772,-2.772 0,-1.496 -1.232,-2.728 -2.728,-2.728"
     class="StaffText" />
  <path
     inkscape:connector-curvature="0"
     id="path1525"
     d="m 2237.9814,875.04304 c -1.496,1.804 -5.544,3.168 -9.592,3.256 v 1.892 h 3.872 c 2.552,0.044 2.816,0.308 2.728,2.772 v 17.644 c 0,2.244 0,2.332 -0.264,2.728 -0.352,0.44 -1.188,0.616 -3.652,0.616 h -2.86 v 2.068 h 17.424 v -2.068 h -2.42 c -2.464,0 -3.3,-0.176 -3.652,-0.616 -0.308,-0.396 -0.308,-0.44 -0.308,-2.728 v -18.172 c 0,-2.464 0.088,-4.532 0.308,-7.392 h -1.584 m 17.501,4.972 c 2.376,0.572 3.564,0.748 5.324,0.748 3.74,0 6.468,-1.276 7.92,-3.74 0.484,-0.792 0.66,-1.232 0.66,-1.584 0,-0.264 -0.088,-0.396 -0.352,-0.396 -0.132,0 -0.308,0.044 -0.572,0.176 -2.156,0.924 -3.3,1.144 -5.852,1.144 -2.816,0 -4.576,-0.264 -9.064,-1.32 -0.176,3.696 -0.572,8.404 -1.188,13.86 -0.924,0.968 -1.232,1.54 -1.232,2.244 0,0.924 0.572,1.496 1.408,1.496 1.144,0 1.804,-0.924 1.98,-2.684 1.54,-1.1 2.992,-1.584 4.752,-1.584 3.96,0 6.292,2.992 6.292,8.052 0,2.948 -0.748,5.456 -2.068,6.82 -0.88,0.924 -2.684,1.54 -4.488,1.54 -2.64,0 -5.368,-1.364 -5.368,-2.728 0,-0.308 0.264,-0.66 0.792,-0.968 1.364,-0.836 1.76,-1.408 1.76,-2.596 0,-1.54 -1.188,-2.728 -2.772,-2.728 -1.76,0 -3.168,1.628 -3.168,3.696 0,2.2 1.276,4.4 3.256,5.764 1.496,0.968 3.256,1.452 5.588,1.452 6.908,0 11.264,-4.048 11.264,-10.516 0,-5.984 -3.96,-9.988 -9.944,-9.988 -1.892,0 -3.256,0.308 -5.676,1.32 l 0.748,-7.48 m 23.265,21.12 c -1.54,0 -2.772,1.232 -2.772,2.728 0,1.54 1.232,2.772 2.728,2.772 1.54,0 2.772,-1.232 2.772,-2.772 0,-1.496 -1.232,-2.728 -2.728,-2.728"
     class="StaffText" />
  <path
     inkscape:connector-curvature="0"
     id="path1527"
     d="m 199.891,1035.0649 c -1.496,1.804 -5.544,3.168 -9.592,3.256 v 1.892 h 3.872 c 2.552,0.044 2.816,0.308 2.728,2.772 v 17.644 c 0,2.244 0,2.332 -0.264,2.728 -0.352,0.44 -1.188,0.616 -3.652,0.616 h -2.86 v 2.068 h 17.424 v -2.068 h -2.42 c -2.464,0 -3.3,-0.176 -3.652,-0.616 -0.308,-0.396 -0.308,-0.44 -0.308,-2.728 v -18.172 c 0,-2.464 0.088,-4.532 0.308,-7.392 h -1.584 m 17.017,16.016 c 0.44,-5.5 0.66,-6.952 1.628,-9.196 1.276,-3.124 3.608,-4.928 6.38,-4.928 1.54,0 2.464,0.484 2.464,1.276 0,0.176 -0.044,0.308 -0.22,0.616 -0.44,0.836 -0.66,1.496 -0.66,2.112 0,1.452 1.144,2.552 2.684,2.552 1.716,0 2.904,-1.32 2.904,-3.168 0,-3.036 -3.036,-5.28 -7.216,-5.28 -3.608,0 -6.996,1.716 -9.108,4.664 -2.42,3.388 -3.74,7.964 -3.74,12.76 0,8.624 4.224,14.212 10.736,14.212 2.86,0 5.236,-0.968 7.084,-2.904 1.892,-1.936 3.036,-4.796 3.036,-7.612 0,-5.192 -3.696,-9.064 -8.712,-9.064 -2.992,0 -5.192,1.188 -7.26,3.96 m 6.028,-1.276 c 3.212,0 5.148,2.508 5.148,6.688 0,5.104 -2.024,8.316 -5.236,8.316 -2.024,0 -3.564,-1.056 -4.62,-3.212 -0.704,-1.364 -1.056,-2.86 -1.056,-4.488 0,-4.532 2.2,-7.304 5.764,-7.304 m 17.721,11.352 c -1.54,0 -2.772,1.232 -2.772,2.728 0,1.54 1.232,2.772 2.728,2.772 1.54,0 2.772,-1.232 2.772,-2.772 0,-1.496 -1.232,-2.728 -2.728,-2.728"
     class="StaffText" />
  <path
     inkscape:connector-curvature="0"
     id="path1529"
     d="m 709.52366,1035.1089 c -1.496,1.804 -5.544,3.168 -9.592,3.256 v 1.892 h 3.872 c 2.552,0.044 2.816,0.308 2.728,2.772 v 17.644 c 0,2.244 0,2.332 -0.264,2.728 -0.352,0.44 -1.188,0.616 -3.652,0.616 h -2.86 v 2.068 h 17.424 v -2.068 h -2.42 c -2.464,0 -3.3,-0.176 -3.652,-0.616 -0.308,-0.396 -0.308,-0.44 -0.308,-2.728 v -18.172 c 0,-2.464 0.088,-4.532 0.308,-7.392 h -1.584 m 12.881,10.648 1.936,0.308 0.792,-3.476 c 0.66,-2.904 0.968,-3.344 2.244,-3.344 0.22,0 0.572,0 0.968,0.044 5.412,0.264 5.412,0.264 7.436,0.264 0.572,0 1.584,0 2.816,-0.044 l -2.992,6.028 c -3.256,6.468 -3.652,7.26 -4.752,9.988 -1.364,3.3 -2.068,6.072 -2.068,7.92 0,2.024 1.056,3.256 2.772,3.256 2.112,0 2.948,-1.408 2.904,-5.236 -0.22,-6.336 0.572,-9.416 5.28,-19.712 0.66,-1.408 1.32,-2.772 1.98,-4.136 0.044,-0.088 0.176,-0.484 0.44,-1.056 v -1.276 c -2.64,0.22 -4.048,0.308 -6.776,0.308 -3.828,0 -6.864,-0.132 -11.616,-0.484 l -1.364,10.648 m 27.885,15.444 c -1.54,0 -2.772,1.232 -2.772,2.728 0,1.54 1.232,2.772 2.728,2.772 1.54,0 2.772,-1.232 2.772,-2.772 0,-1.496 -1.232,-2.728 -2.728,-2.728"
     class="StaffText" />
  <path
     inkscape:connector-curvature="0"
     id="path1531"
     d="m 1218.8462,1035.0649 c -1.496,1.804 -5.544,3.168 -9.592,3.256 v 1.892 h 3.872 c 2.552,0.044 2.816,0.308 2.728,2.772 v 17.644 c 0,2.244 0,2.332 -0.264,2.728 -0.352,0.44 -1.188,0.616 -3.652,0.616 h -2.86 v 2.068 h 17.424 v -2.068 h -2.42 c -2.464,0 -3.3,-0.176 -3.652,-0.616 -0.308,-0.396 -0.308,-0.44 -0.308,-2.728 v -18.172 c 0,-2.464 0.088,-4.532 0.308,-7.392 h -1.584 m 26.741,13.816 c 3.256,-1.76 4.84,-3.96 4.84,-6.82 0,-4.048 -3.652,-6.996 -8.756,-6.996 -5.368,0 -9.284,3.52 -9.284,8.404 0,1.892 0.704,3.872 1.936,5.236 0.748,0.88 1.452,1.364 3.036,2.2 -1.936,0.748 -2.772,1.188 -3.74,1.98 -1.716,1.408 -2.684,3.52 -2.684,5.764 0,2.42 1.188,4.796 3.036,6.16 1.716,1.232 4.092,1.892 6.908,1.892 3.256,0 5.984,-0.88 7.832,-2.464 1.848,-1.672 2.992,-4.356 2.992,-7.04 0,-2.508 -0.968,-4.752 -2.772,-6.336 -0.88,-0.792 -1.672,-1.232 -3.344,-1.98 m -4.708,-1.76 c -3.564,-1.276 -5.104,-2.948 -5.104,-5.5 0,-2.816 2.288,-4.664 5.764,-4.664 3.388,0 5.632,2.156 5.632,5.368 0,2.288 -0.88,3.784 -3.388,5.896 l -2.904,-1.1 m 2.552,6.116 c 3.344,1.188 4.752,2.904 4.752,5.808 0,3.52 -2.772,5.764 -7.084,5.764 -4.136,0 -6.512,-2.244 -6.512,-6.16 0,-3.3 1.364,-5.28 4.796,-6.864 l 4.048,1.452 m 16.181,7.92 c -1.54,0 -2.772,1.232 -2.772,2.728 0,1.54 1.232,2.772 2.728,2.772 1.54,0 2.772,-1.232 2.772,-2.772 0,-1.496 -1.232,-2.728 -2.728,-2.728"
     class="StaffText" />
  <path
     inkscape:connector-curvature="0"
     id="path1533"
     d="m 1728.7889,1035.0649 c -1.496,1.804 -5.544,3.168 -9.592,3.256 v 1.892 h 3.872 c 2.552,0.044 2.816,0.308 2.728,2.772 v 17.644 c 0,2.244 0,2.332 -0.264,2.728 -0.352,0.44 -1.188,0.616 -3.652,0.616 h -2.86 v 2.068 h 17.424 v -2.068 h -2.42 c -2.464,0 -3.3,-0.176 -3.652,-0.616 -0.308,-0.396 -0.308,-0.44 -0.308,-2.728 v -18.172 c 0,-2.464 0.088,-4.532 0.308,-7.392 h -1.584 m 28.061,15.708 c -0.528,5.148 -0.792,6.688 -1.584,8.888 -1.144,3.256 -3.52,5.148 -6.512,5.148 -1.452,0 -2.42,-0.44 -2.42,-1.1 0,-0.176 0.088,-0.396 0.264,-0.748 0.484,-1.012 0.572,-1.32 0.572,-1.936 0,-1.496 -1.1,-2.596 -2.596,-2.596 -1.672,0 -2.992,1.408 -2.992,3.168 0,2.904 3.08,5.104 7.128,5.104 4.004,0 7.436,-1.804 9.592,-5.06 2.156,-3.256 3.344,-7.48 3.344,-12.056 0,-8.844 -4.18,-14.52 -10.78,-14.52 -5.676,0 -10.076,4.664 -10.076,10.604 0,5.28 3.652,9.108 8.712,9.108 3.124,0 4.972,-1.012 7.348,-4.004 m -5.808,-13.816 c 3.256,0 5.412,3.212 5.412,8.184 0,1.804 -0.352,3.432 -1.012,4.444 -1.012,1.584 -2.728,2.552 -4.62,2.552 -3.344,0 -5.236,-2.596 -5.236,-7.26 0,-2.112 0.484,-4.18 1.32,-5.544 1.012,-1.672 2.2,-2.376 4.136,-2.376 m 18.513,24.2 c -1.54,0 -2.772,1.232 -2.772,2.728 0,1.54 1.232,2.772 2.728,2.772 1.54,0 2.772,-1.232 2.772,-2.772 0,-1.496 -1.232,-2.728 -2.728,-2.728"
     class="StaffText" />
  <path
     inkscape:connector-curvature="0"
     id="path1535"
     d="m 2246.0324,1056.5369 h -1.936 l -0.44,2.244 c -0.572,2.86 -0.924,3.124 -3.652,3.124 h -9.856 c 3.036,-3.168 4.048,-4.092 6.864,-6.292 4.004,-3.08 5.72,-4.62 6.732,-5.94 1.408,-1.936 2.112,-3.872 2.112,-6.028 0,-5.016 -4.136,-8.58 -9.9,-8.58 -5.588,0 -9.856,3.564 -9.856,8.272 0,2.772 1.408,4.664 3.476,4.664 1.628,0 2.728,-1.1 2.728,-2.684 0,-1.1 -0.616,-2.112 -1.54,-2.508 -1.628,-0.66 -1.716,-0.748 -1.716,-1.32 0,-0.66 0.44,-1.672 1.056,-2.42 1.1,-1.364 2.904,-2.112 4.972,-2.112 3.652,0 5.808,2.244 5.808,5.94 0,3.256 -1.54,6.204 -5.192,10.076 -3.256,3.432 -5.28,5.588 -6.028,6.424 -1.584,1.848 -2.376,2.86 -4.312,5.412 v 1.232 h 19.844 l 0.836,-9.504 m 14.73,-21.472 c -6.16,0 -10.648,6.688 -10.648,15.928 0,9.064 4.356,15.708 10.296,15.708 6.16,0 10.472,-6.424 10.472,-15.576 0,-4.664 -0.968,-8.536 -2.816,-11.572 -1.716,-2.772 -4.532,-4.488 -7.304,-4.488 m -0.308,1.892 c 1.452,0 2.86,0.968 3.916,2.728 1.188,2.068 1.584,4.576 1.584,10.604 0,6.204 -0.308,9.108 -1.188,11.044 -1.012,2.156 -2.596,3.476 -4.268,3.476 -1.496,0 -2.86,-0.968 -3.916,-2.728 -1.232,-2.068 -1.584,-4.796 -1.584,-12.012 0,-5.148 0.308,-7.7 1.188,-9.636 1.012,-2.2 2.596,-3.476 4.268,-3.476 m 18.293,24.2 c -1.54,0 -2.772,1.232 -2.772,2.728 0,1.54 1.232,2.772 2.728,2.772 1.54,0 2.772,-1.232 2.772,-2.772 0,-1.496 -1.232,-2.728 -2.728,-2.728"
     class="StaffText" />
  <path
     inkscape:connector-curvature="0"
     id="path1537"
     d="m 207.942,1216.5589 h -1.936 l -0.44,2.244 c -0.572,2.86 -0.924,3.124 -3.652,3.124 h -9.856 c 3.036,-3.168 4.048,-4.092 6.864,-6.292 4.004,-3.08 5.72,-4.62 6.732,-5.94 1.408,-1.936 2.112,-3.872 2.112,-6.028 0,-5.016 -4.136,-8.58 -9.9,-8.58 -5.588,0 -9.856,3.564 -9.856,8.272 0,2.772 1.408,4.664 3.476,4.664 1.628,0 2.728,-1.1 2.728,-2.684 0,-1.1 -0.616,-2.112 -1.54,-2.508 -1.628,-0.66 -1.716,-0.748 -1.716,-1.32 0,-0.66 0.44,-1.672 1.056,-2.42 1.1,-1.364 2.904,-2.112 4.972,-2.112 3.652,0 5.808,2.244 5.808,5.94 0,3.256 -1.54,6.204 -5.192,10.076 -3.256,3.432 -5.28,5.588 -6.028,6.424 -1.584,1.848 -2.376,2.86 -4.312,5.412 v 1.232 h 19.844 l 0.836,-9.504 m 16.402,-21.472 c -1.496,1.804 -5.544,3.168 -9.592,3.256 v 1.892 h 3.872 c 2.552,0.044 2.816,0.308 2.728,2.772 v 17.644 c 0,2.244 0,2.332 -0.264,2.728 -0.352,0.44 -1.188,0.616 -3.652,0.616 h -2.86 v 2.068 H 232 v -2.068 h -2.42 c -2.464,0 -3.3,-0.176 -3.652,-0.616 -0.308,-0.396 -0.308,-0.44 -0.308,-2.728 v -18.172 c 0,-2.464 0.088,-4.532 0.308,-7.392 h -1.584 m 16.313,26.092 c -1.54,0 -2.772,1.232 -2.772,2.728 0,1.54 1.232,2.772 2.728,2.772 1.54,0 2.772,-1.232 2.772,-2.772 0,-1.496 -1.232,-2.728 -2.728,-2.728"
     class="StaffText" />
  <path
     inkscape:connector-curvature="0"
     id="path1539"
     d="m 717.57466,1216.5589 h -1.936 l -0.44,2.244 c -0.572,2.86 -0.924,3.124 -3.652,3.124 h -9.856 c 3.036,-3.168 4.048,-4.092 6.864,-6.292 4.004,-3.08 5.72,-4.62 6.732,-5.94 1.408,-1.936 2.112,-3.872 2.112,-6.028 0,-5.016 -4.136,-8.58 -9.9,-8.58 -5.588,0 -9.856,3.564 -9.856,8.272 0,2.772 1.408,4.664 3.476,4.664 1.628,0 2.728,-1.1 2.728,-2.684 0,-1.1 -0.616,-2.112 -1.54,-2.508 -1.628,-0.66 -1.716,-0.748 -1.716,-1.32 0,-0.66 0.44,-1.672 1.056,-2.42 1.1,-1.364 2.904,-2.112 4.972,-2.112 3.652,0 5.808,2.244 5.808,5.94 0,3.256 -1.54,6.204 -5.192,10.076 -3.256,3.432 -5.28,5.588 -6.028,6.424 -1.584,1.848 -2.376,2.86 -4.312,5.412 v 1.232 h 19.844 l 0.836,-9.504 m 24.454,0 h -1.936 l -0.44,2.244 c -0.572,2.86 -0.924,3.124 -3.652,3.124 h -9.856 c 3.036,-3.168 4.048,-4.092 6.864,-6.292 4.004,-3.08 5.72,-4.62 6.732,-5.94 1.408,-1.936 2.112,-3.872 2.112,-6.028 0,-5.016 -4.136,-8.58 -9.9,-8.58 -5.588,0 -9.856,3.564 -9.856,8.272 0,2.772 1.408,4.664 3.476,4.664 1.628,0 2.728,-1.1 2.728,-2.684 0,-1.1 -0.616,-2.112 -1.54,-2.508 -1.628,-0.66 -1.716,-0.748 -1.716,-1.32 0,-0.66 0.44,-1.672 1.056,-2.42 1.1,-1.364 2.904,-2.112 4.972,-2.112 3.652,0 5.808,2.244 5.808,5.94 0,3.256 -1.54,6.204 -5.192,10.076 -3.256,3.432 -5.28,5.588 -6.028,6.424 -1.584,1.848 -2.376,2.86 -4.312,5.412 v 1.232 h 19.844 l 0.836,-9.504 m 8.261,4.62 c -1.54,0 -2.772,1.232 -2.772,2.728 0,1.54 1.232,2.772 2.728,2.772 1.54,0 2.772,-1.232 2.772,-2.772 0,-1.496 -1.232,-2.728 -2.728,-2.728"
     class="StaffText" />
  <path
     inkscape:connector-curvature="0"
     id="path1541"
     d="m 1226.8972,1216.5149 h -1.936 l -0.44,2.244 c -0.572,2.86 -0.924,3.124 -3.652,3.124 h -9.856 c 3.036,-3.168 4.048,-4.092 6.864,-6.292 4.004,-3.08 5.72,-4.62 6.732,-5.94 1.408,-1.936 2.112,-3.872 2.112,-6.028 0,-5.016 -4.136,-8.58 -9.9,-8.58 -5.588,0 -9.856,3.564 -9.856,8.272 0,2.772 1.408,4.664 3.476,4.664 1.628,0 2.728,-1.1 2.728,-2.684 0,-1.1 -0.616,-2.112 -1.54,-2.508 -1.628,-0.66 -1.716,-0.748 -1.716,-1.32 0,-0.66 0.44,-1.672 1.056,-2.42 1.1,-1.364 2.904,-2.112 4.972,-2.112 3.652,0 5.808,2.244 5.808,5.94 0,3.256 -1.54,6.204 -5.192,10.076 -3.256,3.432 -5.28,5.588 -6.028,6.424 -1.584,1.848 -2.376,2.86 -4.312,5.412 v 1.232 h 19.844 l 0.836,-9.504 m 17.458,-6.688 c 4.004,-1.452 5.852,-3.696 5.852,-7.216 0,-4.62 -3.52,-7.568 -8.976,-7.568 -5.148,0 -9.064,3.036 -9.064,7.04 0,1.804 1.188,3.08 2.904,3.08 1.54,0 2.596,-1.056 2.596,-2.64 0,-0.968 -0.352,-1.54 -1.364,-2.244 -0.44,-0.308 -0.572,-0.484 -0.572,-0.792 0,-1.232 2.552,-2.552 5.06,-2.552 3.168,0 4.84,1.98 4.84,5.72 0,4.092 -1.672,6.248 -4.796,6.248 -0.396,0 -1.144,-0.044 -1.804,-0.088 -0.352,-0.044 -0.704,-0.044 -0.968,-0.044 -0.924,0 -1.408,0.396 -1.408,1.188 0,0.748 0.44,1.1 1.408,1.1 0.264,0 0.616,0 1.012,-0.044 0.88,-0.044 1.584,-0.044 2.068,-0.044 3.256,0 5.016,2.332 5.016,6.688 0,4.576 -2.2,7.128 -6.16,7.128 -2.772,0 -5.764,-1.496 -5.764,-2.86 0,-0.396 0.088,-0.484 0.924,-0.968 1.232,-0.748 1.716,-1.496 1.716,-2.596 0,-1.584 -1.188,-2.772 -2.772,-2.772 -1.892,0 -3.124,1.54 -3.124,3.872 0,4.268 3.916,7.216 9.548,7.216 6.38,0 10.516,-3.52 10.516,-8.932 0,-4.136 -2.112,-6.644 -6.688,-7.92 m 15.257,11.308 c -1.54,0 -2.772,1.232 -2.772,2.728 0,1.54 1.232,2.772 2.728,2.772 1.54,0 2.772,-1.232 2.772,-2.772 0,-1.496 -1.232,-2.728 -2.728,-2.728"
     class="StaffText" />
  <path
     inkscape:connector-curvature="0"
     id="path1543"
     d="m 1736.8399,1216.5589 h -1.936 l -0.44,2.244 c -0.572,2.86 -0.924,3.124 -3.652,3.124 h -9.856 c 3.036,-3.168 4.048,-4.092 6.864,-6.292 4.004,-3.08 5.72,-4.62 6.732,-5.94 1.408,-1.936 2.112,-3.872 2.112,-6.028 0,-5.016 -4.136,-8.58 -9.9,-8.58 -5.588,0 -9.856,3.564 -9.856,8.272 0,2.772 1.408,4.664 3.476,4.664 1.628,0 2.728,-1.1 2.728,-2.684 0,-1.1 -0.616,-2.112 -1.54,-2.508 -1.628,-0.66 -1.716,-0.748 -1.716,-1.32 0,-0.66 0.44,-1.672 1.056,-2.42 1.1,-1.364 2.904,-2.112 4.972,-2.112 3.652,0 5.808,2.244 5.808,5.94 0,3.256 -1.54,6.204 -5.192,10.076 -3.256,3.432 -5.28,5.588 -6.028,6.424 -1.584,1.848 -2.376,2.86 -4.312,5.412 v 1.232 h 19.844 l 0.836,-9.504 m 18.426,-21.472 -14.96,20.812 v 2.464 h 12.364 v 2.288 c 0,2.244 0,2.332 -0.264,2.728 -0.352,0.484 -1.188,0.616 -3.696,0.616 h -0.484 v 2.068 h 12.848 v -2.068 h -0.176 c -2.508,0 -3.344,-0.132 -3.696,-0.616 -0.264,-0.396 -0.264,-0.44 -0.264,-2.728 v -2.288 h 5.324 v -2.464 h -5.324 v -12.012 c 0,-5.5 0,-5.632 0.22,-8.8 h -1.892 m -2.596,20.812 h -9.68 l 9.68,-13.332 v 13.332 m 16.885,5.28 c -1.54,0 -2.772,1.232 -2.772,2.728 0,1.54 1.232,2.772 2.728,2.772 1.54,0 2.772,-1.232 2.772,-2.772 0,-1.496 -1.232,-2.728 -2.728,-2.728"
     class="StaffText" />
  <path
     inkscape:connector-curvature="0"
     id="path1545"
     d="m 224.344,555.08716 c -1.496,1.804 -5.544,3.168 -9.592,3.256 v 1.892 h 3.872 c 2.552,0.044 2.816,0.308 2.728,2.772 v 17.644 c 0,2.244 0,2.332 -0.264,2.728 -0.352,0.44 -1.188,0.616 -3.652,0.616 h -2.86 v 2.068 H 232 v -2.068 h -2.42 c -2.464,0 -3.3,-0.176 -3.652,-0.616 -0.308,-0.396 -0.308,-0.44 -0.308,-2.728 v -18.172 c 0,-2.464 0.088,-4.532 0.308,-7.392 h -1.584 m 16.313,26.092 c -1.54,0 -2.772,1.232 -2.772,2.728 0,1.54 1.232,2.772 2.728,2.772 1.54,0 2.772,-1.232 2.772,-2.772 0,-1.496 -1.232,-2.728 -2.728,-2.728"
     class="StaffText" />
  <path
     inkscape:connector-curvature="0"
     id="path1547"
     d="m 742.02766,576.55913 h -1.936 l -0.44,2.244 c -0.572,2.86 -0.924,3.124 -3.652,3.124 h -9.856 c 3.036,-3.168 4.048,-4.092 6.864,-6.292 4.004,-3.08 5.72,-4.62 6.732,-5.94 1.408,-1.936 2.112,-3.872 2.112,-6.028 0,-5.016 -4.136,-8.58 -9.9,-8.58 -5.588,0 -9.856,3.564 -9.856,8.272 0,2.772 1.408,4.664 3.476,4.664 1.628,0 2.728,-1.1 2.728,-2.684 0,-1.1 -0.616,-2.112 -1.54,-2.508 -1.628,-0.66 -1.716,-0.748 -1.716,-1.32 0,-0.66 0.44,-1.672 1.056,-2.42 1.1,-1.364 2.904,-2.112 4.972,-2.112 3.652,0 5.808,2.244 5.808,5.94 0,3.256 -1.54,6.204 -5.192,10.076 -3.256,3.432 -5.28,5.588 -6.028,6.424 -1.584,1.848 -2.376,2.86 -4.312,5.412 v 1.232 h 19.844 l 0.836,-9.504 m 8.262,4.62 c -1.54,0 -2.772,1.232 -2.772,2.728 0,1.54 1.232,2.772 2.728,2.772 1.54,0 2.772,-1.232 2.772,-2.772 0,-1.496 -1.232,-2.728 -2.728,-2.728"
     class="StaffText" />
  <path
     inkscape:connector-curvature="0"
     id="path1549"
     d="m 1244.3602,569.82713 c 4,-1.452 5.85,-3.696 5.85,-7.216 0,-4.62 -3.52,-7.568 -8.98,-7.568 -5.14,0 -9.06,3.036 -9.06,7.04 0,1.804 1.19,3.08 2.9,3.08 1.54,0 2.6,-1.056 2.6,-2.64 0,-0.968 -0.35,-1.54 -1.36,-2.244 -0.44,-0.308 -0.58,-0.484 -0.58,-0.792 0,-1.232 2.56,-2.552 5.06,-2.552 3.17,0 4.84,1.98 4.84,5.72 0,4.092 -1.67,6.248 -4.79,6.248 -0.4,0 -1.15,-0.044 -1.81,-0.088 -0.35,-0.044 -0.7,-0.044 -0.96,-0.044 -0.93,0 -1.41,0.396 -1.41,1.188 0,0.748 0.44,1.1 1.41,1.1 0.26,0 0.61,0 1.01,-0.044 0.88,-0.044 1.58,-0.044 2.07,-0.044 3.25,0 5.01,2.332 5.01,6.688 0,4.576 -2.2,7.128 -6.16,7.128 -2.77,0 -5.76,-1.496 -5.76,-2.86 0,-0.396 0.09,-0.484 0.92,-0.968 1.23,-0.748 1.72,-1.496 1.72,-2.596 0,-1.584 -1.19,-2.772 -2.77,-2.772 -1.9,0 -3.13,1.54 -3.13,3.872 0,4.268 3.92,7.216 9.55,7.216 6.38,0 10.52,-3.52 10.52,-8.932 0,-4.136 -2.12,-6.644 -6.69,-7.92 m 15.26,11.308 c -1.54,0 -2.78,1.232 -2.78,2.728 0,1.54 1.24,2.772 2.73,2.772 1.54,0 2.77,-1.232 2.77,-2.772 0,-1.496 -1.23,-2.728 -2.72,-2.728"
     class="StaffText" />
  <path
     inkscape:connector-curvature="0"
     id="path1551"
     d="m 1755.2629,555.08713 -14.96,20.812 v 2.464 h 12.37 v 2.288 c 0,2.244 0,2.332 -0.27,2.728 -0.35,0.484 -1.19,0.616 -3.69,0.616 h -0.49 v 2.068 h 12.85 v -2.068 h -0.18 c -2.5,0 -3.34,-0.132 -3.69,-0.616 -0.27,-0.396 -0.27,-0.44 -0.27,-2.728 v -2.288 h 5.33 v -2.464 h -5.33 v -12.012 c 0,-5.5 0,-5.632 0.22,-8.8 h -1.89 m -2.59,20.812 h -9.68 l 9.68,-13.332 v 13.332 m 16.88,5.28 c -1.54,0 -2.77,1.232 -2.77,2.728 0,1.54 1.23,2.772 2.73,2.772 1.54,0 2.77,-1.232 2.77,-2.772 0,-1.496 -1.23,-2.728 -2.73,-2.728"
     class="StaffText" />
  <path
     inkscape:connector-curvature="0"
     id="path1553"
     d="m 2255.4854,560.01513 c 2.37,0.572 3.56,0.748 5.32,0.748 3.74,0 6.47,-1.276 7.92,-3.74 0.49,-0.792 0.66,-1.232 0.66,-1.584 0,-0.264 -0.09,-0.396 -0.35,-0.396 -0.13,0 -0.31,0.044 -0.57,0.176 -2.16,0.924 -3.3,1.144 -5.85,1.144 -2.82,0 -4.58,-0.264 -9.07,-1.32 -0.17,3.696 -0.57,8.404 -1.19,13.86 -0.92,0.968 -1.23,1.54 -1.23,2.244 0,0.924 0.57,1.496 1.41,1.496 1.14,0 1.8,-0.924 1.98,-2.684 1.54,-1.1 2.99,-1.584 4.75,-1.584 3.96,0 6.29,2.992 6.29,8.052 0,2.948 -0.74,5.456 -2.06,6.82 -0.88,0.924 -2.69,1.54 -4.49,1.54 -2.64,0 -5.37,-1.364 -5.37,-2.728 0,-0.308 0.26,-0.66 0.79,-0.968 1.37,-0.836 1.76,-1.408 1.76,-2.596 0,-1.54 -1.19,-2.728 -2.77,-2.728 -1.76,0 -3.17,1.628 -3.17,3.696 0,2.2 1.28,4.4 3.26,5.764 1.49,0.968 3.25,1.452 5.59,1.452 6.9,0 11.26,-4.048 11.26,-10.516 0,-5.984 -3.96,-9.988 -9.94,-9.988 -1.9,0 -3.26,0.308 -5.68,1.32 l 0.75,-7.48 m 23.26,21.12 c -1.54,0 -2.77,1.232 -2.77,2.728 0,1.54 1.23,2.772 2.73,2.772 1.54,0 2.77,-1.232 2.77,-2.772 0,-1.496 -1.23,-2.728 -2.73,-2.728"
     class="StaffText" />
  <path
     style="stroke-width:0.992126"
     inkscape:connector-curvature="0"
     id="path2460"
     d="m 333.20503,559.2391 c -13.6913,0 -18.5528,6.9449 -18.5528,13.3937 0,6.4489 4.8615,13.3938 18.5528,13.3938 13.6913,0 18.4535,-6.9449 18.4535,-13.3938 0,-6.4488 -4.7622,-13.3937 -18.4535,-13.3937 m -8.2346,9.0284 c -0.099,-0.3969 -0.099,-0.7937 -0.099,-1.1906 0,-0.7937 0.1984,-1.5874 0.5952,-2.2818 0.6945,-0.9922 1.8851,-1.6867 3.3733,-1.9843 1.2897,-0.2976 1.9842,-0.4961 4.5637,-0.4961 h 0.099 c 3.9685,0 5.2583,3.6709 6.3496,7.441 l 0.2977,0.9921 c 0.7937,2.5795 1.1905,4.7622 1.1905,6.4488 0,1.1906 -0.1984,2.2819 -0.5952,3.0756 -0.5953,1.0914 -1.5874,1.7858 -3.2741,2.1827 -0.8929,0.1984 -2.3811,0.2976 -2.3811,0.2976 -0.496,0 -0.8929,0.099 -1.2897,0.099 -3.1748,0 -5.1591,-1.1905 -6.5481,-5.4566 -1.1905,-3.6709 -1.3889,-4.7623 -2.2818,-9.1276"
     class="Note" />
  <g
     transform="translate(116.91067,-48.770912)"
     id="g4043">
    <polyline
       class="Stem"
       fill="none"
       stroke="#000000"
       stroke-width="2.73"
       stroke-linejoin="bevel"
       points="1244.99,618.437 1244.99,559.843"
       id="polyline2392" />
    <path
       inkscape:connector-curvature="0"
       class="Note"
       d="m 31.5,-8.2 c -1.5,-2.7 -4.4,-4.4 -8.3,-4.8 -0.6,-0.1 -1.1,-0.1 -1.7,-0.1 -3.5,0 -7.3,1 -10.8,2.9 C 4.1,-6.6 0,-0.8 0,4.3 c 0,1.4 0.4,2.8 1.1,4 1.5,2.8 4.3,4.4 8.2,4.8 0.6,0.1 1.1,0.1 1.7,0.1 3.5,0 7.3,-1 10.8,-2.9 6.6,-3.6 10.7,-9.5 10.7,-14.6 0,-1.4 -0.3,-2.7 -1,-3.9 m -4.2,6.3 C 25.6,-0.1 22.4,2.2 18.8,4.3 15.2,6.4 11.5,8.1 9.2,8.8 8.7,8.9 8.1,9 7.6,9 6.1,9 4.8,8.3 4.1,7.2 3.8,6.6 3.6,6 3.6,5.4 3.6,4.3 4.1,3.2 5.2,2 c 1.7,-1.8 4.9,-4.2 8.5,-6.3 3.6,-2.1 7.3,-3.8 9.7,-4.4 h 0.2 c 0.6,-0.2 1.1,-0.3 1.6,-0.3 1.4,0 2.5,0.6 3.2,1.9 0.3,0.6 0.5,1.1 0.5,1.7 0,1.3 -0.7,2.6 -1.6,3.5"
       id="path2464"
       transform="matrix(0.992126,0,0,0.992126,1214.12,621.85)" />
  </g>
  <g
     transform="translate(96.339597,-48.929202)"
     id="g4047">
    <polyline
       class="Stem"
       fill="none"
       stroke="#000000"
       stroke-width="2.73"
       stroke-linejoin="bevel"
       points="2284.71,618.517 2284.71,559.843"
       id="polyline2396" />
    <path
       inkscape:connector-curvature="0"
       class="Note"
       d="m 31.5,-8.2 c -1.5,-2.7 -4.4,-4.4 -8.3,-4.8 -0.6,-0.1 -1.1,-0.1 -1.7,-0.1 -3.5,0 -7.3,1 -10.8,2.9 C 4.1,-6.6 0,-0.7 0,4.4 c 0,1.4 0.2,2.7 0.9,3.9 1.5,2.7 4.5,4.4 8.4,4.8 0.6,0.1 1.1,0.1 1.7,0.1 3.5,0 7.2,-1 10.7,-2.9 6.6,-3.6 10.8,-9.4 10.8,-14.5 0,-1.4 -0.3,-2.8 -1,-4"
       id="path2468"
       transform="matrix(0.992126,0,0,0.992126,2253.84,621.85)" />
  </g>
  <g
     transform="translate(81.905014,-152.91006)"
     id="g4029">
    <polyline
       class="Stem"
       fill="none"
       stroke="#000000"
       stroke-width="2.73"
       stroke-linejoin="bevel"
       points="263.313,882.084 263.313,817.209"
       id="polyline2398" />
    <polyline
       class="Stem"
       fill="none"
       stroke="#000000"
       stroke-width="2.73"
       stroke-linejoin="bevel"
       points="356.869,882.084 356.869,817.209"
       id="polyline2400" />
    <path
       inkscape:connector-curvature="0"
       class="Note"
       transform="matrix(0.992126,0,0,0.992126,232.441,885.418)"
       d="m 31.5,-8.2 c -1.5,-2.7 -4.4,-4.4 -8.3,-4.8 -0.6,-0.1 -1.1,-0.1 -1.7,-0.1 -3.5,0 -7.3,1 -10.8,2.9 C 4.1,-6.6 0,-0.7 0,4.4 c 0,1.4 0.2,2.7 0.9,3.9 1.5,2.7 4.5,4.4 8.4,4.8 0.6,0.1 1.1,0.1 1.7,0.1 3.5,0 7.2,-1 10.7,-2.9 6.6,-3.6 10.8,-9.4 10.8,-14.5 0,-1.4 -0.3,-2.8 -1,-4"
       id="path2470" />
    <path
       inkscape:connector-curvature="0"
       class="Note"
       transform="matrix(0.992126,0,0,0.992126,325.996,885.418)"
       d="m 31.5,-8.2 c -1.5,-2.7 -4.4,-4.4 -8.3,-4.8 -0.6,-0.1 -1.1,-0.1 -1.7,-0.1 -3.5,0 -7.3,1 -10.8,2.9 C 4.1,-6.6 0,-0.7 0,4.4 c 0,1.4 0.2,2.7 0.9,3.9 1.5,2.7 4.5,4.4 8.4,4.8 0.6,0.1 1.1,0.1 1.7,0.1 3.5,0 7.2,-1 10.7,-2.9 6.6,-3.6 10.8,-9.4 10.8,-14.5 0,-1.4 -0.3,-2.8 -1,-4"
       id="path2472" />
    <path
       inkscape:connector-curvature="0"
       class="Beam"
       fill-rule="evenodd"
       d="m 261.949,811.008 h 96.284 v 12.402 h -96.284 v -12.402"
       id="path2532" />
  </g>
  <g
     transform="translate(589.08992,-416.48206)"
     id="g4022">
    <polyline
       class="Stem"
       fill="none"
       stroke="#000000"
       stroke-width="2.73"
       stroke-linejoin="bevel"
       points="263.313,1145.65 263.313,1080.78"
       id="polyline2402" />
    <polyline
       class="Stem"
       fill="none"
       stroke="#000000"
       stroke-width="2.73"
       stroke-linejoin="bevel"
       points="350.833,1145.65 350.833,1080.78"
       id="polyline2404" />
    <polyline
       class="Stem"
       fill="none"
       stroke="#000000"
       stroke-width="2.73"
       stroke-linejoin="bevel"
       points="438.352,1145.65 438.352,1080.78"
       id="polyline2406" />
    <path
       inkscape:connector-curvature="0"
       class="Note"
       transform="matrix(0.992126,0,0,0.992126,232.441,1148.99)"
       d="m 31.5,-8.2 c -1.5,-2.7 -4.4,-4.4 -8.3,-4.8 -0.6,-0.1 -1.1,-0.1 -1.7,-0.1 -3.5,0 -7.3,1 -10.8,2.9 C 4.1,-6.6 0,-0.7 0,4.4 c 0,1.4 0.2,2.7 0.9,3.9 1.5,2.7 4.5,4.4 8.4,4.8 0.6,0.1 1.1,0.1 1.7,0.1 3.5,0 7.2,-1 10.7,-2.9 6.6,-3.6 10.8,-9.4 10.8,-14.5 0,-1.4 -0.3,-2.8 -1,-4"
       id="path2474" />
    <path
       inkscape:connector-curvature="0"
       class="Note"
       transform="matrix(0.992126,0,0,0.992126,319.961,1148.99)"
       d="m 31.5,-8.2 c -1.5,-2.7 -4.4,-4.4 -8.3,-4.8 -0.6,-0.1 -1.1,-0.1 -1.7,-0.1 -3.5,0 -7.3,1 -10.8,2.9 C 4.1,-6.6 0,-0.7 0,4.4 c 0,1.4 0.2,2.7 0.9,3.9 1.5,2.7 4.5,4.4 8.4,4.8 0.6,0.1 1.1,0.1 1.7,0.1 3.5,0 7.2,-1 10.7,-2.9 6.6,-3.6 10.8,-9.4 10.8,-14.5 0,-1.4 -0.3,-2.8 -1,-4"
       id="path2476" />
    <path
       inkscape:connector-curvature="0"
       class="Note"
       transform="matrix(0.992126,0,0,0.992126,407.48,1148.99)"
       d="m 31.5,-8.2 c -1.5,-2.7 -4.4,-4.4 -8.3,-4.8 -0.6,-0.1 -1.1,-0.1 -1.7,-0.1 -3.5,0 -7.3,1 -10.8,2.9 C 4.1,-6.6 0,-0.7 0,4.4 c 0,1.4 0.2,2.7 0.9,3.9 1.5,2.7 4.5,4.4 8.4,4.8 0.6,0.1 1.1,0.1 1.7,0.1 3.5,0 7.2,-1 10.7,-2.9 6.6,-3.6 10.8,-9.4 10.8,-14.5 0,-1.4 -0.3,-2.8 -1,-4"
       id="path2478" />
    <path
       inkscape:connector-curvature="0"
       class="Beam"
       fill-rule="evenodd"
       d="m 261.949,1074.58 h 177.768 v 12.4 H 261.949 v -12.4"
       id="path2534" />
  </g>
  <g
     transform="translate(589.15118,-1573.8822)"
     id="g3986">
    <polyline
       class="Stem"
       fill="none"
       stroke="#000000"
       stroke-width="2.73"
       stroke-linejoin="bevel"
       points="263.313,2463.49 263.313,2386.21"
       id="polyline2426" />
    <polyline
       class="Stem"
       fill="none"
       stroke="#000000"
       stroke-width="2.73"
       stroke-linejoin="bevel"
       points="323.604,2463.49 323.604,2386.21"
       id="polyline2428" />
    <polyline
       class="Stem"
       fill="none"
       stroke="#000000"
       stroke-width="2.73"
       stroke-linejoin="bevel"
       points="383.896,2463.49 383.896,2386.21"
       id="polyline2430" />
    <polyline
       class="Stem"
       fill="none"
       stroke="#000000"
       stroke-width="2.73"
       stroke-linejoin="bevel"
       points="444.187,2463.49 444.187,2386.21"
       id="polyline2432" />
    <path
       inkscape:connector-curvature="0"
       class="Note"
       transform="matrix(0.992126,0,0,0.992126,232.441,2466.82)"
       d="m 31.5,-8.2 c -1.5,-2.7 -4.4,-4.4 -8.3,-4.8 -0.6,-0.1 -1.1,-0.1 -1.7,-0.1 -3.5,0 -7.3,1 -10.8,2.9 C 4.1,-6.6 0,-0.7 0,4.4 c 0,1.4 0.2,2.7 0.9,3.9 1.5,2.7 4.5,4.4 8.4,4.8 0.6,0.1 1.1,0.1 1.7,0.1 3.5,0 7.2,-1 10.7,-2.9 6.6,-3.6 10.8,-9.4 10.8,-14.5 0,-1.4 -0.3,-2.8 -1,-4"
       id="path2498" />
    <path
       inkscape:connector-curvature="0"
       class="Note"
       transform="matrix(0.992126,0,0,0.992126,292.732,2466.82)"
       d="m 31.5,-8.2 c -1.5,-2.7 -4.4,-4.4 -8.3,-4.8 -0.6,-0.1 -1.1,-0.1 -1.7,-0.1 -3.5,0 -7.3,1 -10.8,2.9 C 4.1,-6.6 0,-0.7 0,4.4 c 0,1.4 0.2,2.7 0.9,3.9 1.5,2.7 4.5,4.4 8.4,4.8 0.6,0.1 1.1,0.1 1.7,0.1 3.5,0 7.2,-1 10.7,-2.9 6.6,-3.6 10.8,-9.4 10.8,-14.5 0,-1.4 -0.3,-2.8 -1,-4"
       id="path2500" />
    <path
       inkscape:connector-curvature="0"
       class="Note"
       transform="matrix(0.992126,0,0,0.992126,353.024,2466.82)"
       d="m 31.5,-8.2 c -1.5,-2.7 -4.4,-4.4 -8.3,-4.8 -0.6,-0.1 -1.1,-0.1 -1.7,-0.1 -3.5,0 -7.3,1 -10.8,2.9 C 4.1,-6.6 0,-0.7 0,4.4 c 0,1.4 0.2,2.7 0.9,3.9 1.5,2.7 4.5,4.4 8.4,4.8 0.6,0.1 1.1,0.1 1.7,0.1 3.5,0 7.2,-1 10.7,-2.9 6.6,-3.6 10.8,-9.4 10.8,-14.5 0,-1.4 -0.3,-2.8 -1,-4"
       id="path2502" />
    <path
       inkscape:connector-curvature="0"
       class="Note"
       transform="matrix(0.992126,0,0,0.992126,413.315,2466.82)"
       d="m 31.5,-8.2 c -1.5,-2.7 -4.4,-4.4 -8.3,-4.8 -0.6,-0.1 -1.1,-0.1 -1.7,-0.1 -3.5,0 -7.3,1 -10.8,2.9 C 4.1,-6.6 0,-0.7 0,4.4 c 0,1.4 0.2,2.7 0.9,3.9 1.5,2.7 4.5,4.4 8.4,4.8 0.6,0.1 1.1,0.1 1.7,0.1 3.5,0 7.2,-1 10.7,-2.9 6.6,-3.6 10.8,-9.4 10.8,-14.5 0,-1.4 -0.3,-2.8 -1,-4"
       id="path2504" />
    <path
       inkscape:connector-curvature="0"
       class="Beam"
       fill-rule="evenodd"
       d="m 261.949,2380.01 h 183.602 v 12.4 H 261.949 v -12.4"
       id="path2538" />
    <path
       inkscape:connector-curvature="0"
       class="Beam"
       fill-rule="evenodd"
       d="m 261.949,2398.61 h 183.602 v 12.4 H 261.949 v -12.4"
       id="path2540" />
  </g>
  <g
     transform="translate(2118.1484,-2364.5822)"
     id="g3956">
    <polyline
       class="Stem"
       fill="none"
       stroke="#000000"
       stroke-width="2.73"
       stroke-linejoin="bevel"
       points="263.313,3254.19 263.313,3176.91"
       id="polyline2442" />
    <polyline
       class="Stem"
       fill="none"
       stroke="#000000"
       stroke-width="2.73"
       stroke-linejoin="bevel"
       points="364.266,3254.19 364.266,3176.91"
       id="polyline2444" />
    <polyline
       class="Stem"
       fill="none"
       stroke="#000000"
       stroke-width="2.73"
       stroke-linejoin="bevel"
       points="427.362,3254.19 427.362,3176.91"
       id="polyline2446" />
    <path
       inkscape:connector-curvature="0"
       class="Note"
       transform="matrix(0.992126,0,0,0.992126,232.441,3257.52)"
       d="m 31.5,-8.2 c -1.5,-2.7 -4.4,-4.4 -8.3,-4.8 -0.6,-0.1 -1.1,-0.1 -1.7,-0.1 -3.5,0 -7.3,1 -10.8,2.9 C 4.1,-6.6 0,-0.7 0,4.4 c 0,1.4 0.2,2.7 0.9,3.9 1.5,2.7 4.5,4.4 8.4,4.8 0.6,0.1 1.1,0.1 1.7,0.1 3.5,0 7.2,-1 10.7,-2.9 6.6,-3.6 10.8,-9.4 10.8,-14.5 0,-1.4 -0.3,-2.8 -1,-4"
       id="path2514" />
    <path
       inkscape:connector-curvature="0"
       class="Note"
       transform="matrix(0.992126,0,0,0.992126,333.394,3257.52)"
       d="m 31.5,-8.2 c -1.5,-2.7 -4.4,-4.4 -8.3,-4.8 -0.6,-0.1 -1.1,-0.1 -1.7,-0.1 -3.5,0 -7.3,1 -10.8,2.9 C 4.1,-6.6 0,-0.7 0,4.4 c 0,1.4 0.2,2.7 0.9,3.9 1.5,2.7 4.5,4.4 8.4,4.8 0.6,0.1 1.1,0.1 1.7,0.1 3.5,0 7.2,-1 10.7,-2.9 6.6,-3.6 10.8,-9.4 10.8,-14.5 0,-1.4 -0.3,-2.8 -1,-4"
       id="path2516" />
    <path
       inkscape:connector-curvature="0"
       class="Note"
       transform="matrix(0.992126,0,0,0.992126,396.489,3257.52)"
       d="m 31.5,-8.2 c -1.5,-2.7 -4.4,-4.4 -8.3,-4.8 -0.6,-0.1 -1.1,-0.1 -1.7,-0.1 -3.5,0 -7.3,1 -10.8,2.9 C 4.1,-6.6 0,-0.7 0,4.4 c 0,1.4 0.2,2.7 0.9,3.9 1.5,2.7 4.5,4.4 8.4,4.8 0.6,0.1 1.1,0.1 1.7,0.1 3.5,0 7.2,-1 10.7,-2.9 6.6,-3.6 10.8,-9.4 10.8,-14.5 0,-1.4 -0.3,-2.8 -1,-4"
       id="path2518" />
    <path
       inkscape:connector-curvature="0"
       class="Beam"
       fill-rule="evenodd"
       d="m 261.949,3170.71 h 166.777 v 12.4 H 261.949 v -12.4"
       id="path2550" />
    <path
       inkscape:connector-curvature="0"
       class="Beam"
       fill-rule="evenodd"
       d="m 362.902,3189.32 h 65.824 v 12.4 h -65.824 v -12.4"
       id="path2552" />
  </g>
  <g
     transform="translate(82.2281,-2468.6327)"
     id="g3946">
    <polyline
       class="Stem"
       fill="none"
       stroke="#000000"
       stroke-width="2.73"
       stroke-linejoin="bevel"
       points="263.313,3517.76 263.313,3440.48"
       id="polyline2448" />
    <polyline
       class="Stem"
       fill="none"
       stroke="#000000"
       stroke-width="2.73"
       stroke-linejoin="bevel"
       points="326.409,3517.76 326.409,3440.48"
       id="polyline2450" />
    <polyline
       class="Stem"
       fill="none"
       stroke="#000000"
       stroke-width="2.73"
       stroke-linejoin="bevel"
       points="389.504,3517.76 389.504,3440.48"
       id="polyline2452" />
    <path
       inkscape:connector-curvature="0"
       class="Note"
       transform="matrix(0.992126,0,0,0.992126,232.441,3521.09)"
       d="m 31.5,-8.2 c -1.5,-2.7 -4.4,-4.4 -8.3,-4.8 -0.6,-0.1 -1.1,-0.1 -1.7,-0.1 -3.5,0 -7.3,1 -10.8,2.9 C 4.1,-6.6 0,-0.7 0,4.4 c 0,1.4 0.2,2.7 0.9,3.9 1.5,2.7 4.5,4.4 8.4,4.8 0.6,0.1 1.1,0.1 1.7,0.1 3.5,0 7.2,-1 10.7,-2.9 6.6,-3.6 10.8,-9.4 10.8,-14.5 0,-1.4 -0.3,-2.8 -1,-4"
       id="path2520" />
    <path
       inkscape:connector-curvature="0"
       class="Note"
       transform="matrix(0.992126,0,0,0.992126,295.537,3521.09)"
       d="m 31.5,-8.2 c -1.5,-2.7 -4.4,-4.4 -8.3,-4.8 -0.6,-0.1 -1.1,-0.1 -1.7,-0.1 -3.5,0 -7.3,1 -10.8,2.9 C 4.1,-6.6 0,-0.7 0,4.4 c 0,1.4 0.2,2.7 0.9,3.9 1.5,2.7 4.5,4.4 8.4,4.8 0.6,0.1 1.1,0.1 1.7,0.1 3.5,0 7.2,-1 10.7,-2.9 6.6,-3.6 10.8,-9.4 10.8,-14.5 0,-1.4 -0.3,-2.8 -1,-4"
       id="path2522" />
    <path
       inkscape:connector-curvature="0"
       class="Note"
       transform="matrix(0.992126,0,0,0.992126,358.632,3521.09)"
       d="m 31.5,-8.2 c -1.5,-2.7 -4.4,-4.4 -8.3,-4.8 -0.6,-0.1 -1.1,-0.1 -1.7,-0.1 -3.5,0 -7.3,1 -10.8,2.9 C 4.1,-6.6 0,-0.7 0,4.4 c 0,1.4 0.2,2.7 0.9,3.9 1.5,2.7 4.5,4.4 8.4,4.8 0.6,0.1 1.1,0.1 1.7,0.1 3.5,0 7.2,-1 10.7,-2.9 6.6,-3.6 10.8,-9.4 10.8,-14.5 0,-1.4 -0.3,-2.8 -1,-4"
       id="path2524" />
    <path
       inkscape:connector-curvature="0"
       class="Beam"
       fill-rule="evenodd"
       d="m 261.949,3434.28 h 128.919 v 12.4 H 261.949 v -12.4"
       id="path2554" />
    <path
       inkscape:connector-curvature="0"
       class="Beam"
       fill-rule="evenodd"
       d="m 261.949,3452.88 h 65.824 v 12.4 h -65.824 v -12.4"
       id="path2556" />
  </g>
  <g
     transform="translate(588.86649,-2732.2027)"
     id="g3936">
    <polyline
       class="Stem"
       fill="none"
       stroke="#000000"
       stroke-width="2.73"
       stroke-linejoin="bevel"
       points="263.313,3781.33 263.313,3704.05"
       id="polyline2454" />
    <polyline
       class="Stem"
       fill="none"
       stroke="#000000"
       stroke-width="2.73"
       stroke-linejoin="bevel"
       points="326.409,3781.33 326.409,3704.05"
       id="polyline2456" />
    <polyline
       class="Stem"
       fill="none"
       stroke="#000000"
       stroke-width="2.73"
       stroke-linejoin="bevel"
       points="427.362,3781.33 427.362,3704.05"
       id="polyline2458" />
    <path
       inkscape:connector-curvature="0"
       class="Note"
       transform="matrix(0.992126,0,0,0.992126,232.441,3784.66)"
       d="m 31.5,-8.2 c -1.5,-2.7 -4.4,-4.4 -8.3,-4.8 -0.6,-0.1 -1.1,-0.1 -1.7,-0.1 -3.5,0 -7.3,1 -10.8,2.9 C 4.1,-6.6 0,-0.7 0,4.4 c 0,1.4 0.2,2.7 0.9,3.9 1.5,2.7 4.5,4.4 8.4,4.8 0.6,0.1 1.1,0.1 1.7,0.1 3.5,0 7.2,-1 10.7,-2.9 6.6,-3.6 10.8,-9.4 10.8,-14.5 0,-1.4 -0.3,-2.8 -1,-4"
       id="path2526" />
    <path
       inkscape:connector-curvature="0"
       class="Note"
       transform="matrix(0.992126,0,0,0.992126,295.537,3784.66)"
       d="m 31.5,-8.2 c -1.5,-2.7 -4.4,-4.4 -8.3,-4.8 -0.6,-0.1 -1.1,-0.1 -1.7,-0.1 -3.5,0 -7.3,1 -10.8,2.9 C 4.1,-6.6 0,-0.7 0,4.4 c 0,1.4 0.2,2.7 0.9,3.9 1.5,2.7 4.5,4.4 8.4,4.8 0.6,0.1 1.1,0.1 1.7,0.1 3.5,0 7.2,-1 10.7,-2.9 6.6,-3.6 10.8,-9.4 10.8,-14.5 0,-1.4 -0.3,-2.8 -1,-4"
       id="path2528" />
    <path
       inkscape:connector-curvature="0"
       class="Note"
       transform="matrix(0.992126,0,0,0.992126,396.489,3784.66)"
       d="m 31.5,-8.2 c -1.5,-2.7 -4.4,-4.4 -8.3,-4.8 -0.6,-0.1 -1.1,-0.1 -1.7,-0.1 -3.5,0 -7.3,1 -10.8,2.9 C 4.1,-6.6 0,-0.7 0,4.4 c 0,1.4 0.2,2.7 0.9,3.9 1.5,2.7 4.5,4.4 8.4,4.8 0.6,0.1 1.1,0.1 1.7,0.1 3.5,0 7.2,-1 10.7,-2.9 6.6,-3.6 10.8,-9.4 10.8,-14.5 0,-1.4 -0.3,-2.8 -1,-4"
       id="path2530" />
    <path
       inkscape:connector-curvature="0"
       class="Beam"
       fill-rule="evenodd"
       d="m 261.949,3697.85 h 166.777 v 12.4 H 261.949 v -12.4"
       id="path2558" />
    <path
       inkscape:connector-curvature="0"
       class="Beam"
       fill-rule="evenodd"
       d="m 261.949,3716.45 h 32.244 v 12.4 h -32.244 v -12.4"
       id="path2560" />
    <path
       inkscape:connector-curvature="0"
       class="Beam"
       fill-rule="evenodd"
       d="m 428.726,3716.45 h -32.244 v 12.4 h 32.244 v -12.4"
       id="path2562" />
  </g>
  <g
     transform="translate(1098.1343,-680.04206)"
     id="g4013">
    <polyline
       class="Stem"
       fill="none"
       stroke="#000000"
       stroke-width="2.73"
       stroke-linejoin="bevel"
       points="263.313,1409.22 263.313,1350.54"
       id="polyline2408" />
    <polyline
       class="Stem"
       fill="none"
       stroke="#000000"
       stroke-width="2.73"
       stroke-linejoin="bevel"
       points="413.002,1409.22 413.002,1338.14"
       id="polyline2410" />
    <path
       inkscape:connector-curvature="0"
       class="Note"
       transform="matrix(0.992126,0,0,0.992126,232.441,1412.55)"
       d="m 31.5,-8.2 c -1.5,-2.7 -4.4,-4.4 -8.3,-4.8 -0.6,-0.1 -1.1,-0.1 -1.7,-0.1 -3.5,0 -7.3,1 -10.8,2.9 C 4.1,-6.6 0,-0.7 0,4.4 c 0,1.4 0.2,2.7 0.9,3.9 1.5,2.7 4.5,4.4 8.4,4.8 0.6,0.1 1.1,0.1 1.7,0.1 3.5,0 7.2,-1 10.7,-2.9 6.6,-3.6 10.8,-9.4 10.8,-14.5 0,-1.4 -0.3,-2.8 -1,-4"
       id="path2480" />
    <path
       inkscape:connector-curvature="0"
       class="Note"
       transform="matrix(0.992126,0,0,0.992126,382.13,1412.55)"
       d="m 31.5,-8.2 c -1.5,-2.7 -4.4,-4.4 -8.3,-4.8 -0.6,-0.1 -1.1,-0.1 -1.7,-0.1 -3.5,0 -7.3,1 -10.8,2.9 C 4.1,-6.6 0,-0.7 0,4.4 c 0,1.4 0.2,2.7 0.9,3.9 1.5,2.7 4.5,4.4 8.4,4.8 0.6,0.1 1.1,0.1 1.7,0.1 3.5,0 7.2,-1 10.7,-2.9 6.6,-3.6 10.8,-9.4 10.8,-14.5 0,-1.4 -0.3,-2.8 -1,-4"
       id="path2482" />
    <path
       inkscape:connector-curvature="0"
       class="Hook"
       transform="matrix(0.992126,0,0,0.992126,411.638,1338.14)"
       d="M 3.5,3.5 C 3.4,3.2 2.5,-0.3 2.5,-0.5 2.4,-0.9 1.8,-1.2 1.3,-1.2 0.6,-1.2 0,-0.6 0,0.1 v 16.4 6.2 c 0,0.5 0.4,0.9 0.8,1.1 4.2,1.3 12.9,6.8 19.4,17.9 1.8,3.1 4.7,7.3 4.7,15.7 0,7.2 -1.1,14.8 -2.9,21.8 -0.3,1.1 -0.6,2.1 0.5,2.5 1.1,0.4 1.5,-0.4 1.9,-1.4 3.6,-8.8 4.5,-18 4.5,-24.2 V 54.2 C 28.4,41.3 21,31.8 21,31.8 21.3,31.8 11.8,19.5 9.1,15.3 5.4,9.6 3.6,3.9 3.5,3.5"
       id="path2564" />
  </g>
  <g
     transform="translate(1607.9763,-943.61206)"
     id="g4006">
    <polyline
       class="Stem"
       fill="none"
       stroke="#000000"
       stroke-width="2.73"
       stroke-linejoin="bevel"
       points="263.313,1672.79 263.313,1607.91"
       id="polyline2412" />
    <polyline
       class="Stem"
       fill="none"
       stroke="#000000"
       stroke-width="2.73"
       stroke-linejoin="bevel"
       points="335.644,1672.79 335.644,1607.91"
       id="polyline2414" />
    <polyline
       class="Stem"
       fill="none"
       stroke="#000000"
       stroke-width="2.73"
       stroke-linejoin="bevel"
       points="407.975,1672.79 407.975,1607.91"
       id="polyline2416" />
    <path
       inkscape:connector-curvature="0"
       class="Note"
       transform="matrix(0.992126,0,0,0.992126,232.441,1676.12)"
       d="m 31.5,-8.2 c -1.5,-2.7 -4.4,-4.4 -8.3,-4.8 -0.6,-0.1 -1.1,-0.1 -1.7,-0.1 -3.5,0 -7.3,1 -10.8,2.9 C 4.1,-6.6 0,-0.7 0,4.4 c 0,1.4 0.2,2.7 0.9,3.9 1.5,2.7 4.5,4.4 8.4,4.8 0.6,0.1 1.1,0.1 1.7,0.1 3.5,0 7.2,-1 10.7,-2.9 6.6,-3.6 10.8,-9.4 10.8,-14.5 0,-1.4 -0.3,-2.8 -1,-4"
       id="path2484" />
    <path
       inkscape:connector-curvature="0"
       class="Note"
       transform="matrix(0.992126,0,0,0.992126,304.772,1676.12)"
       d="m 31.5,-8.2 c -1.5,-2.7 -4.4,-4.4 -8.3,-4.8 -0.6,-0.1 -1.1,-0.1 -1.7,-0.1 -3.5,0 -7.3,1 -10.8,2.9 C 4.1,-6.6 0,-0.7 0,4.4 c 0,1.4 0.2,2.7 0.9,3.9 1.5,2.7 4.5,4.4 8.4,4.8 0.6,0.1 1.1,0.1 1.7,0.1 3.5,0 7.2,-1 10.7,-2.9 6.6,-3.6 10.8,-9.4 10.8,-14.5 0,-1.4 -0.3,-2.8 -1,-4"
       id="path2486" />
    <path
       inkscape:connector-curvature="0"
       class="Note"
       transform="matrix(0.992126,0,0,0.992126,377.102,1676.12)"
       d="m 31.5,-8.2 c -1.5,-2.7 -4.4,-4.4 -8.3,-4.8 -0.6,-0.1 -1.1,-0.1 -1.7,-0.1 -3.5,0 -7.3,1 -10.8,2.9 C 4.1,-6.6 0,-0.7 0,4.4 c 0,1.4 0.2,2.7 0.9,3.9 1.5,2.7 4.5,4.4 8.4,4.8 0.6,0.1 1.1,0.1 1.7,0.1 3.5,0 7.2,-1 10.7,-2.9 6.6,-3.6 10.8,-9.4 10.8,-14.5 0,-1.4 -0.3,-2.8 -1,-4"
       id="path2488" />
    <path
       inkscape:connector-curvature="0"
       class="Beam"
       fill-rule="evenodd"
       d="m 261.949,1601.71 h 147.39 v 12.4 h -147.39 v -12.4"
       id="path2536" />
    <path
       inkscape:connector-curvature="0"
       class="Tuplet"
       d="m 338.236,1568.46 c 2.115,-0.67 2.97,-1.03 4.05,-1.75 2.115,-1.4 3.42,-3.87 3.42,-6.39 0,-4.28 -3.42,-7.16 -8.46,-7.16 -4.905,0 -9.045,3.06 -9.045,6.75 0,1.85 1.125,3.11 2.835,3.11 1.485,0 2.565,-1.08 2.565,-2.57 0,-0.76 -0.225,-1.3 -0.945,-2.02 -0.45,-0.41 -0.63,-0.72 -0.63,-1.04 0,-1.08 2.25,-2.2 4.365,-2.2 3.015,0 4.815,1.66 4.815,4.45 0,4.01 -2.835,7.79 -5.85,7.79 -0.135,0 -0.54,-0.05 -1.035,-0.09 -1.305,-0.09 -1.305,-0.09 -1.575,-0.09 -0.99,0 -1.53,0.45 -1.53,1.26 0,0.72 0.495,1.17 1.305,1.17 0.225,0 0.54,-0.05 0.9,-0.09 0.63,-0.14 1.305,-0.18 1.71,-0.18 2.115,0 3.555,1.89 3.555,4.68 0,2.16 -0.495,4.23 -1.485,5.94 -1.35,2.43 -3.42,3.6 -6.345,3.6 -2.52,0 -4.68,-1.26 -4.68,-2.7 0,-0.5 0.18,-0.68 0.9,-0.99 1.305,-0.59 1.845,-1.4 1.845,-2.61 0,-1.58 -1.26,-2.79 -2.88,-2.79 -1.935,0 -3.195,1.53 -3.195,3.87 0,4.36 3.33,7.11 8.73,7.11 6.795,0 11.97,-4.55 11.97,-10.58 0,-1.62 -0.495,-3.01 -1.44,-4.14 -0.99,-1.17 -1.89,-1.71 -3.87,-2.34"
       id="path2570" />
  </g>
  <g
     transform="translate(2117.498,-1207.1821)"
     id="g3996">
    <polyline
       class="Stem"
       fill="none"
       stroke="#000000"
       stroke-width="2.73"
       stroke-linejoin="bevel"
       points="263.313,1936.35 263.313,1877.68"
       id="polyline2418" />
    <polyline
       class="Stem"
       fill="none"
       stroke="#000000"
       stroke-width="2.73"
       stroke-linejoin="bevel"
       points="385.56,1936.35 385.56,1865.28"
       id="polyline2420" />
    <path
       inkscape:connector-curvature="0"
       class="Note"
       transform="matrix(0.992126,0,0,0.992126,232.441,1939.69)"
       d="m 31.5,-8.2 c -1.5,-2.7 -4.4,-4.4 -8.3,-4.8 -0.6,-0.1 -1.1,-0.1 -1.7,-0.1 -3.5,0 -7.3,1 -10.8,2.9 C 4.1,-6.6 0,-0.7 0,4.4 c 0,1.4 0.2,2.7 0.9,3.9 1.5,2.7 4.5,4.4 8.4,4.8 0.6,0.1 1.1,0.1 1.7,0.1 3.5,0 7.2,-1 10.7,-2.9 6.6,-3.6 10.8,-9.4 10.8,-14.5 0,-1.4 -0.3,-2.8 -1,-4"
       id="path2490" />
    <path
       inkscape:connector-curvature="0"
       class="Note"
       transform="matrix(0.992126,0,0,0.992126,354.688,1939.69)"
       d="m 31.5,-8.2 c -1.5,-2.7 -4.4,-4.4 -8.3,-4.8 -0.6,-0.1 -1.1,-0.1 -1.7,-0.1 -3.5,0 -7.3,1 -10.8,2.9 C 4.1,-6.6 0,-0.7 0,4.4 c 0,1.4 0.2,2.7 0.9,3.9 1.5,2.7 4.5,4.4 8.4,4.8 0.6,0.1 1.1,0.1 1.7,0.1 3.5,0 7.2,-1 10.7,-2.9 6.6,-3.6 10.8,-9.4 10.8,-14.5 0,-1.4 -0.3,-2.8 -1,-4"
       id="path2492" />
    <path
       inkscape:connector-curvature="0"
       class="Hook"
       transform="matrix(0.992126,0,0,0.992126,384.196,1865.28)"
       d="M 3.5,3.5 C 3.4,3.2 2.5,-0.3 2.5,-0.5 2.4,-0.9 1.8,-1.2 1.3,-1.2 0.6,-1.2 0,-0.6 0,0.1 v 16.4 6.2 c 0,0.5 0.4,0.9 0.8,1.1 4.2,1.3 12.9,6.8 19.4,17.9 1.8,3.1 4.7,7.3 4.7,15.7 0,7.2 -1.1,14.8 -2.9,21.8 -0.3,1.1 -0.6,2.1 0.5,2.5 1.1,0.4 1.5,-0.4 1.9,-1.4 3.6,-8.8 4.5,-18 4.5,-24.2 V 54.2 C 28.4,41.3 21,31.8 21,31.8 21.3,31.8 11.8,19.5 9.1,15.3 5.4,9.6 3.6,3.9 3.5,3.5"
       id="path2566" />
    <path
       inkscape:connector-curvature="0"
       class="Tuplet"
       d="m 326.041,1831.16 c 2.115,-0.67 2.97,-1.03 4.05,-1.75 2.115,-1.4 3.42,-3.87 3.42,-6.39 0,-4.28 -3.42,-7.16 -8.46,-7.16 -4.905,0 -9.045,3.06 -9.045,6.75 0,1.85 1.125,3.11 2.835,3.11 1.485,0 2.565,-1.08 2.565,-2.57 0,-0.76 -0.225,-1.3 -0.945,-2.02 -0.45,-0.41 -0.63,-0.72 -0.63,-1.04 0,-1.08 2.25,-2.2 4.365,-2.2 3.015,0 4.815,1.66 4.815,4.45 0,4.01 -2.835,7.79 -5.85,7.79 -0.135,0 -0.54,-0.05 -1.035,-0.09 -1.305,-0.09 -1.305,-0.09 -1.575,-0.09 -0.99,0 -1.53,0.45 -1.53,1.26 0,0.72 0.495,1.17 1.305,1.17 0.225,0 0.54,-0.05 0.9,-0.09 0.63,-0.14 1.305,-0.18 1.71,-0.18 2.115,0 3.555,1.89 3.555,4.68 0,2.16 -0.495,4.23 -1.485,5.94 -1.35,2.43 -3.42,3.6 -6.345,3.6 -2.52,0 -4.68,-1.26 -4.68,-2.7 0,-0.5 0.18,-0.68 0.9,-0.99 1.305,-0.59 1.845,-1.4 1.845,-2.61 0,-1.58 -1.26,-2.79 -2.88,-2.79 -1.935,0 -3.195,1.53 -3.195,3.87 0,4.36 3.33,7.11 8.73,7.11 6.795,0 11.97,-4.55 11.97,-10.58 0,-1.62 -0.495,-3.01 -1.44,-4.14 -0.99,-1.17 -1.89,-1.71 -3.87,-2.34"
       id="path2572" />
    <polyline
       class="Tuplet"
       fill="none"
       stroke="#000000"
       stroke-width="2.48"
       stroke-linecap="square"
       stroke-linejoin="bevel"
       points="244.843,1850.64 244.843,1832.04 298.253,1832.04"
       id="polyline2574" />
    <polyline
       class="Tuplet"
       fill="none"
       stroke="#000000"
       stroke-width="2.48"
       stroke-linecap="square"
       stroke-linejoin="bevel"
       points="345.916,1832.04 399.326,1832.04 399.326,1850.64"
       id="polyline2576" />
  </g>
  <g
     transform="translate(104.99133,-48.762118)"
     id="g4034">
    <polyline
       class="Stem"
       fill="none"
       stroke="#000000"
       stroke-width="2.73"
       stroke-linejoin="bevel"
       points="747.443,618.437 747.443,559.843"
       id="polyline2390" />
    <path
       inkscape:connector-curvature="0"
       class="Note"
       transform="matrix(0.992126,0,0,0.992126,716.571,621.85)"
       d="m 31.5,-8.2 c -1.5,-2.7 -4.4,-4.4 -8.3,-4.8 -0.6,-0.1 -1.1,-0.1 -1.7,-0.1 -3.5,0 -7.3,1 -10.8,2.9 C 4.1,-6.6 0,-0.8 0,4.3 c 0,1.4 0.4,2.8 1.1,4 1.5,2.8 4.3,4.4 8.2,4.8 0.6,0.1 1.1,0.1 1.7,0.1 3.5,0 7.3,-1 10.8,-2.9 6.6,-3.6 10.7,-9.5 10.7,-14.6 0,-1.4 -0.3,-2.7 -1,-3.9 m -4.2,6.3 C 25.6,-0.1 22.4,2.2 18.8,4.3 15.2,6.4 11.5,8.1 9.2,8.8 8.7,8.9 8.1,9 7.6,9 6.1,9 4.8,8.3 4.1,7.2 3.8,6.6 3.6,6 3.6,5.4 3.6,4.3 4.1,3.2 5.2,2 c 1.7,-1.8 4.9,-4.2 8.5,-6.3 3.6,-2.1 7.3,-3.8 9.7,-4.4 h 0.2 c 0.6,-0.2 1.1,-0.3 1.6,-0.3 1.4,0 2.5,0.6 3.2,1.9 0.3,0.6 0.5,1.1 0.5,1.7 0,1.3 -0.7,2.6 -1.6,3.5"
       id="path2462" />
    <path
       inkscape:connector-curvature="0"
       class="NoteDot"
       transform="matrix(0.992126,0,0,0.992126,761.209,621.85)"
       d="M 0,-0.00166016 C 0,2.75977 2.23857,4.99834 5,4.99834 c 2.76143,0 5,-2.23857 5,-5.00000016 C 10,-2.76309 7.76143,-5.00166 5,-5.00166 c -2.76143,0 -5,2.23857 -5,4.99999984"
       id="path2584" />
  </g>
  <g
     transform="translate(128.72609,-48.633229)"
     id="g4039">
    <polyline
       class="Stem"
       fill="none"
       stroke="#000000"
       stroke-width="2.73"
       stroke-linejoin="bevel"
       points="1742.53,618.517 1742.53,559.843"
       id="polyline2394" />
    <path
       inkscape:connector-curvature="0"
       class="Note"
       transform="matrix(0.992126,0,0,0.992126,1711.66,621.85)"
       d="m 31.5,-8.2 c -1.5,-2.7 -4.4,-4.4 -8.3,-4.8 -0.6,-0.1 -1.1,-0.1 -1.7,-0.1 -3.5,0 -7.3,1 -10.8,2.9 C 4.1,-6.6 0,-0.7 0,4.4 c 0,1.4 0.2,2.7 0.9,3.9 1.5,2.7 4.5,4.4 8.4,4.8 0.6,0.1 1.1,0.1 1.7,0.1 3.5,0 7.2,-1 10.7,-2.9 6.6,-3.6 10.8,-9.4 10.8,-14.5 0,-1.4 -0.3,-2.8 -1,-4"
       id="path2466" />
    <path
       inkscape:connector-curvature="0"
       class="NoteDot"
       transform="matrix(0.992126,0,0,0.992126,1756.3,621.85)"
       d="M 0,-0.00166016 C 0,2.75977 2.23857,4.99834 5,4.99834 c 2.76143,0 5,-2.23857 5,-5.00000016 C 10,-2.76309 7.76143,-5.00166 5,-5.00166 c -2.76143,0 -5,2.23857 -5,4.99999984"
       id="path2586" />
  </g>
  <g
     transform="translate(1098.4986,-1837.4522)"
     id="g3974">
    <polyline
       class="Stem"
       fill="none"
       stroke="#000000"
       stroke-width="2.73"
       stroke-linejoin="bevel"
       points="263.313,2727.06 263.313,2649.78"
       id="polyline2434" />
    <polyline
       class="Stem"
       fill="none"
       stroke="#000000"
       stroke-width="2.73"
       stroke-linejoin="bevel"
       points="396.459,2727.06 396.459,2649.78"
       id="polyline2436" />
    <path
       inkscape:connector-curvature="0"
       class="Note"
       transform="matrix(0.992126,0,0,0.992126,232.441,2730.39)"
       d="m 31.5,-8.2 c -1.5,-2.7 -4.4,-4.4 -8.3,-4.8 -0.6,-0.1 -1.1,-0.1 -1.7,-0.1 -3.5,0 -7.3,1 -10.8,2.9 C 4.1,-6.6 0,-0.7 0,4.4 c 0,1.4 0.2,2.7 0.9,3.9 1.5,2.7 4.5,4.4 8.4,4.8 0.6,0.1 1.1,0.1 1.7,0.1 3.5,0 7.2,-1 10.7,-2.9 6.6,-3.6 10.8,-9.4 10.8,-14.5 0,-1.4 -0.3,-2.8 -1,-4"
       id="path2506" />
    <path
       inkscape:connector-curvature="0"
       class="Note"
       transform="matrix(0.992126,0,0,0.992126,365.587,2730.39)"
       d="m 31.5,-8.2 c -1.5,-2.7 -4.4,-4.4 -8.3,-4.8 -0.6,-0.1 -1.1,-0.1 -1.7,-0.1 -3.5,0 -7.3,1 -10.8,2.9 C 4.1,-6.6 0,-0.7 0,4.4 c 0,1.4 0.2,2.7 0.9,3.9 1.5,2.7 4.5,4.4 8.4,4.8 0.6,0.1 1.1,0.1 1.7,0.1 3.5,0 7.2,-1 10.7,-2.9 6.6,-3.6 10.8,-9.4 10.8,-14.5 0,-1.4 -0.3,-2.8 -1,-4"
       id="path2508" />
    <path
       inkscape:connector-curvature="0"
       class="Beam"
       fill-rule="evenodd"
       d="m 261.949,2643.58 h 135.875 v 12.4 H 261.949 v -12.4"
       id="path2542" />
    <path
       inkscape:connector-curvature="0"
       class="Beam"
       fill-rule="evenodd"
       d="M 397.824,2662.18 H 365.58 v 12.4 h 32.244 v -12.4"
       id="path2544" />
    <path
       inkscape:connector-curvature="0"
       class="NoteDot"
       transform="matrix(0.992126,0,0,0.992126,277.079,2730.39)"
       d="M 0,-0.00166016 C 0,2.75977 2.23857,4.99834 5,4.99834 c 2.76143,0 5,-2.23857 5,-5.00000016 C 10,-2.76309 7.76143,-5.00166 5,-5.00166 c -2.76143,0 -5,2.23857 -5,4.99999984"
       id="path2588" />
  </g>
  <g
     transform="translate(1607.7792,-2101.0222)"
     id="g3965">
    <polyline
       class="Stem"
       fill="none"
       stroke="#000000"
       stroke-width="2.73"
       stroke-linejoin="bevel"
       points="263.313,2990.62 263.313,2913.35"
       id="polyline2438" />
    <polyline
       class="Stem"
       fill="none"
       stroke="#000000"
       stroke-width="2.73"
       stroke-linejoin="bevel"
       points="331.559,2990.62 331.559,2913.35"
       id="polyline2440" />
    <path
       inkscape:connector-curvature="0"
       class="Note"
       transform="matrix(0.992126,0,0,0.992126,232.441,2993.96)"
       d="m 31.5,-8.2 c -1.5,-2.7 -4.4,-4.4 -8.3,-4.8 -0.6,-0.1 -1.1,-0.1 -1.7,-0.1 -3.5,0 -7.3,1 -10.8,2.9 C 4.1,-6.6 0,-0.7 0,4.4 c 0,1.4 0.2,2.7 0.9,3.9 1.5,2.7 4.5,4.4 8.4,4.8 0.6,0.1 1.1,0.1 1.7,0.1 3.5,0 7.2,-1 10.7,-2.9 6.6,-3.6 10.8,-9.4 10.8,-14.5 0,-1.4 -0.3,-2.8 -1,-4"
       id="path2510" />
    <path
       inkscape:connector-curvature="0"
       class="Note"
       transform="matrix(0.992126,0,0,0.992126,300.687,2993.96)"
       d="m 31.5,-8.2 c -1.5,-2.7 -4.4,-4.4 -8.3,-4.8 -0.6,-0.1 -1.1,-0.1 -1.7,-0.1 -3.5,0 -7.3,1 -10.8,2.9 C 4.1,-6.6 0,-0.7 0,4.4 c 0,1.4 0.2,2.7 0.9,3.9 1.5,2.7 4.5,4.4 8.4,4.8 0.6,0.1 1.1,0.1 1.7,0.1 3.5,0 7.2,-1 10.7,-2.9 6.6,-3.6 10.8,-9.4 10.8,-14.5 0,-1.4 -0.3,-2.8 -1,-4"
       id="path2512" />
    <path
       inkscape:connector-curvature="0"
       class="Beam"
       fill-rule="evenodd"
       d="m 261.949,2907.15 h 70.974 v 12.4 h -70.974 v -12.4"
       id="path2546" />
    <path
       inkscape:connector-curvature="0"
       class="Beam"
       fill-rule="evenodd"
       d="m 261.949,2925.75 h 32.244 v 12.4 h -32.244 v -12.4"
       id="path2548" />
    <path
       inkscape:connector-curvature="0"
       class="NoteDot"
       transform="matrix(0.992126,0,0,0.992126,345.325,2993.96)"
       d="M 0,-0.00166016 C 0,2.75977 2.23857,4.99834 5,4.99834 c 2.76143,0 5,-2.23857 5,-5.00000016 C 10,-2.76309 7.76143,-5.00166 5,-5.00166 c -2.76143,0 -5,2.23857 -5,4.99999984"
       id="path2590" />
  </g>
  <path
     style="stroke-width:0.992126"
     inkscape:connector-curvature="0"
     class="Rest"
     d="m 1390.8642,1052.0605 h -15.0803 -29.6646 -15.0803 v 2.778 h 13.7906 v 9.3259 c 0,0.7937 0.496,1.389 1.2897,1.389 h 29.6646 c 0.7937,0 1.2898,-0.5953 1.2898,-1.389 v -9.3259 h 13.7905 v -2.778"
     id="path3221" />
  <path
     style="stroke-width:0.992126"
     inkscape:connector-curvature="0"
     class="Rest"
     d="m 2410.1302,1065.5534 h -15.0803 -29.6645 -15.0804 v -2.778 h 13.7906 v -9.326 c 0,-0.7937 0.496,-1.389 1.2898,-1.389 h 29.6645 c 0.7937,0 1.2897,0.5953 1.2897,1.389 v 9.326 h 13.7906 v 2.778"
     id="path3225" />
  <path
     style="stroke-width:0.992126"
     inkscape:connector-curvature="0"
     class="Rest"
     d="m 337.1965,1210.3235 -0.1985,-0.2976 c -0.099,-0.099 -0.2976,-0.2977 -0.5952,-0.6945 l -11.4095,-14.0882 c -0.2976,-0.2976 -0.1984,-1.0913 0,-1.4882 l 10.1197,-15.2787 c 0.099,-0.1985 0.1984,-0.4961 0.1984,-0.6945 v -0.8929 c 0,-0.2977 -0.099,-0.5953 -0.2976,-0.7937 l -16.0724,-21.7276 c 0,0 -0.7937,-1.1905 -1.7859,-0.2976 -0.9921,0.7937 -0.1984,2.0834 -0.1984,2.0834 l 7.5402,10.3181 c 0.3968,0.5953 0.3968,1.7859 0,2.3811 l -10.0205,15.2788 c -0.099,0.1984 -0.1984,0.5953 -0.1984,0.7937 v 0.8929 c 0,0.2976 0.099,0.5953 0.2976,0.7937 l 11.1118,13.7906 c -0.3968,-0.099 -1.2898,-0.2977 -2.4803,-0.2977 -1.6866,0 -3.8693,0.3969 -5.6551,1.9843 -2.1827,1.9842 -3.3732,4.7622 -3.3732,7.2425 0,1.389 0.2976,2.7779 1.0913,3.8693 2.0835,3.1748 9.5244,12.6 9.5244,12.6 0,0 0.8929,1.0913 1.7858,0.3968 0.8929,-0.6945 0.6945,-1.5874 0.3969,-2.0834 -0.2977,-0.4961 -3.4725,-6.2504 -3.4725,-6.2504 0,0 -0.6945,-1.389 -0.6945,-3.1748 0,-1.2898 0.3969,-2.8772 1.6867,-4.167 1.1905,-1.1905 2.5795,-1.5874 3.8693,-1.5874 1.2897,0 2.3811,0.3969 3.1748,0.8929 l 3.8692,2.4804 c 0,0 1.1906,0.5952 1.7859,-0.2977 0.496,-0.7937 0.2976,-1.1905 0,-1.6866"
     id="path3227" />
  <path
     style="stroke-width:0.992126"
     inkscape:connector-curvature="0"
     class="Rest"
     d="m 847.95754,1180.9893 c -0.7343,-0.2777 -1.4088,0.05 -1.7362,0.6548 -0.3274,0.6053 -3.4825,6.4885 -7.8776,9.7228 -1.379,1.012 -2.9466,1.647 -4.5042,1.9744 1.1111,-1.25 1.7859,-2.897 1.7859,-4.7027 0,-3.9189 -3.1748,-7.0937 -7.0937,-7.0937 -3.9189,0 -7.0937,3.1748 -7.0937,7.0937 0,2.9864 1.8551,5.546 4.4744,6.5878 1.5179,0.7242 3.413,1.1608 5.4468,1.1608 2.8276,0 5.9131,-0.8235 8.6016,-2.7978 1.2502,-0.9227 2.4408,-2.1034 3.5123,-3.3534 l -11.3004,35.3494 2.6193,0.8433 13.9592,-43.7429 c 0.2282,-0.7242 -0.06,-1.4087 -0.7937,-1.6965"
     id="path3229" />
  <g
     transform="translate(1607.3818,-425.46686)"
     id="g3843">
    <polyline
       id="polyline3207"
       points="323.604,1635.45 323.604,1558.17"
       stroke-linejoin="bevel"
       stroke-width="2.73"
       stroke="#000000"
       fill="none"
       class="Stem" />
    <polyline
       id="polyline3209"
       points="383.896,1635.45 383.896,1558.17"
       stroke-linejoin="bevel"
       stroke-width="2.73"
       stroke="#000000"
       fill="none"
       class="Stem" />
    <polyline
       id="polyline3211"
       points="444.187,1635.45 444.187,1558.17"
       stroke-linejoin="bevel"
       stroke-width="2.73"
       stroke="#000000"
       fill="none"
       class="Stem" />
    <path
       inkscape:connector-curvature="0"
       id="path3215"
       d="m 31.5,-8.2 c -1.5,-2.7 -4.4,-4.4 -8.3,-4.8 -0.6,-0.1 -1.1,-0.1 -1.7,-0.1 -3.5,0 -7.3,1 -10.8,2.9 C 4.1,-6.6 0,-0.7 0,4.4 c 0,1.4 0.2,2.7 0.9,3.9 1.5,2.7 4.5,4.4 8.4,4.8 0.6,0.1 1.1,0.1 1.7,0.1 3.5,0 7.2,-1 10.7,-2.9 6.6,-3.6 10.8,-9.4 10.8,-14.5 0,-1.4 -0.3,-2.8 -1,-4"
       transform="matrix(0.992126,0,0,0.992126,292.732,1638.78)"
       class="Note" />
    <path
       inkscape:connector-curvature="0"
       id="path3217"
       d="m 31.5,-8.2 c -1.5,-2.7 -4.4,-4.4 -8.3,-4.8 -0.6,-0.1 -1.1,-0.1 -1.7,-0.1 -3.5,0 -7.3,1 -10.8,2.9 C 4.1,-6.6 0,-0.7 0,4.4 c 0,1.4 0.2,2.7 0.9,3.9 1.5,2.7 4.5,4.4 8.4,4.8 0.6,0.1 1.1,0.1 1.7,0.1 3.5,0 7.2,-1 10.7,-2.9 6.6,-3.6 10.8,-9.4 10.8,-14.5 0,-1.4 -0.3,-2.8 -1,-4"
       transform="matrix(0.992126,0,0,0.992126,353.024,1638.78)"
       class="Note" />
    <path
       inkscape:connector-curvature="0"
       id="path3219"
       d="m 31.5,-8.2 c -1.5,-2.7 -4.4,-4.4 -8.3,-4.8 -0.6,-0.1 -1.1,-0.1 -1.7,-0.1 -3.5,0 -7.3,1 -10.8,2.9 C 4.1,-6.6 0,-0.7 0,4.4 c 0,1.4 0.2,2.7 0.9,3.9 1.5,2.7 4.5,4.4 8.4,4.8 0.6,0.1 1.1,0.1 1.7,0.1 3.5,0 7.2,-1 10.7,-2.9 6.6,-3.6 10.8,-9.4 10.8,-14.5 0,-1.4 -0.3,-2.8 -1,-4"
       transform="matrix(0.992126,0,0,0.992126,413.315,1638.78)"
       class="Note" />
    <path
       inkscape:connector-curvature="0"
       id="path3233"
       d="m 33.47,-20.295 c -0.75,-0.26 -1.42,0.1 -1.73,0.72 -0.3099,0.62 -3.1299,6.05 -7.44,9.45 -1.35,1.07002 -2.91,1.75996 -4.4699,2.14004 1.0699,-1.3 1.7,-2.97004 1.6399,-4.79004 -0.1399,-3.94 -3.4399,-7.02 -7.38,-6.88 -3.94,0.14 -7.01998,3.44 -6.87994,7.38 0.10996,3.00996 2.05996,5.50996 4.72994,6.47002 1.56,0.67998 3.4701,1.05 5.5201,0.97998 2.8399,-0.1 5.92,-1.04004 8.5599,-3.12002 1.23,-0.97002 2.38,-2.19998 3.42,-3.49998 l -0.0099,0.02 L 24.94,4.48496 c 0,0.01006 -0.0099,0.02002 -0.02,0.03008 V 4.525 c -0.4599,0.95996 -3.7099,7.13 -7.73,10.3 -1.35,1.07 -2.9099,1.76 -4.47,2.14 1.07,-1.3 1.7,-2.97 1.6401,-4.79 C 14.22,8.23496 10.92,5.15498 6.98008,5.29502 3.04004,5.43496 -0.0399414,8.73496 0.1,12.675 c 0.110059,3.01 2.06006,5.51 4.73008,6.47 1.55996,0.68 3.46992,1.05 5.51992,0.98 2.84,-0.1 5.92,-1.04 8.5601,-3.12 1.22,-0.96 2.37,-2.19 3.4099,-3.49 l -10.2099,36.46 2.67,0.75 18.6699,-66.22 0.8801,-3.12 c 0.2,-0.74 -0.1101,-1.42 -0.8601,-1.68"
       transform="matrix(0.992126,0,0,0.992126,232.441,1601.57)"
       class="Rest" />
    <path
       inkscape:connector-curvature="0"
       id="path3249"
       d="m 322.24,1551.97 h 123.311 v 12.4 H 322.24 v -12.4"
       fill-rule="evenodd"
       class="Beam" />
    <path
       inkscape:connector-curvature="0"
       id="path3251"
       d="m 322.24,1570.57 h 123.311 v 12.4 H 322.24 v -12.4"
       fill-rule="evenodd"
       class="Beam" />
  </g>
  <g
     transform="translate(1098.3138,207.03267)"
     id="g3832">
    <polyline
       id="polyline3205"
       points="356.869,1002.97 356.869,931.89"
       stroke-linejoin="bevel"
       stroke-width="2.73"
       stroke="#000000"
       fill="none"
       class="Stem" />
    <path
       inkscape:connector-curvature="0"
       id="path3213"
       d="m 31.5,-8.2 c -1.5,-2.7 -4.4,-4.4 -8.3,-4.8 -0.6,-0.1 -1.1,-0.1 -1.7,-0.1 -3.5,0 -7.3,1 -10.8,2.9 C 4.1,-6.6 0,-0.7 0,4.4 c 0,1.4 0.2,2.7 0.9,3.9 1.5,2.7 4.5,4.4 8.4,4.8 0.6,0.1 1.1,0.1 1.7,0.1 3.5,0 7.2,-1 10.7,-2.9 6.6,-3.6 10.8,-9.4 10.8,-14.5 0,-1.4 -0.3,-2.8 -1,-4"
       transform="matrix(0.992126,0,0,0.992126,325.996,1006.3)"
       class="Note" />
    <path
       inkscape:connector-curvature="0"
       id="path3231"
       d="m 26.73,-20.26 c -0.7401,-0.2799 -1.42,0.05 -1.75,0.66 -0.33,0.6101 -3.5101,6.54 -7.9401,9.8 -1.3899,1.02002 -2.97,1.66006 -4.5399,1.99004 1.1199,-1.25996 1.8,-2.92004 1.8,-4.74004 0,-3.95 -3.2,-7.15 -7.15,-7.15 -3.95,0 -7.15,3.2 -7.15,7.15 0,3.01006 1.86992,5.59004 4.50996,6.64004 C 6.03994,-5.17998 7.95,-4.73994 10,-4.73994 c 2.85,0 5.96,-0.82998 8.6699,-2.82002 C 19.93,-8.48994 21.13,-9.67998 22.21,-10.9399 L 10.8199,24.69 13.46,25.54 27.53,-18.55 c 0.23,-0.73 -0.0601,-1.4199 -0.8,-1.71"
       transform="matrix(0.992126,0,0,0.992126,232.441,993.898)"
       class="Rest" />
    <path
       inkscape:connector-curvature="0"
       transform="matrix(0.992126,0,0,0.992126,355.504,931.89)"
       id="path3253"
       d="M 3.5,3.5 C 3.4,3.2 2.5,-0.3 2.5,-0.5 2.4,-0.9 1.8,-1.2 1.3,-1.2 0.6,-1.2 0,-0.6 0,0.1 v 16.4 6.2 c 0,0.5 0.4,0.9 0.8,1.1 4.2,1.3 12.9,6.8 19.4,17.9 1.8,3.1 4.7,7.3 4.7,15.7 0,7.2 -1.1,14.8 -2.9,21.8 -0.3,1.1 -0.6,2.1 0.5,2.5 1.1,0.4 1.5,-0.4 1.9,-1.4 3.6,-8.8 4.5,-18 4.5,-24.2 V 54.2 C 28.4,41.3 21,31.8 21,31.8 21.3,31.8 11.8,19.5 9.1,15.3 5.4,9.6 3.6,3.9 3.5,3.5"
       class="Hook" />
  </g>
  <g
     transform="translate(1136.7276,702.74739)"
     id="g3847">
    <path
       inkscape:connector-curvature="0"
       id="path3223"
       d="M 46.4,1.4 H 31.2 1.3 -13.9 V -1.4 H 0 v -9.4 c 0,-0.8 0.5,-1.4 1.3,-1.4 h 29.9 c 0.8,0 1.3,0.6 1.3,1.4 v 9.4 h 13.9 v 2.8"
       transform="matrix(0.992126,0,0,0.992126,717.366,361.417)"
       class="Rest" />
    <path
       inkscape:connector-curvature="0"
       id="path3255"
       d="M 0,-0.00166016 C 0,2.75977 2.23857,4.99834 5,4.99834 c 2.76143,0 5,-2.23857 5,-5.00000016 C 10,-2.76309 7.76143,-5.00166 5,-5.00166 c -2.76143,0 -5,2.23857 -5,4.99999984"
       transform="matrix(0.992126,0,0,0.992126,789.598,349.016)"
       class="NoteDot" />
  </g>
  <g
     id="g4648"
     transform="translate(256.80658,749.42483)">
    <polyline
       id="polyline4055"
       points="199.759,140.179 199.759,81.5051"
       stroke-linejoin="bevel"
       stroke-width="2.73"
       stroke="#000000"
       fill="none"
       class="" />
    <polyline
       id="polyline4057"
       points="88.4304,140.179 88.4304,69.1035"
       stroke-linejoin="bevel"
       stroke-width="2.73"
       stroke="#000000"
       fill="none"
       class="" />
    <path
       id="path4059"
       d="m 31.5,-8.2 c -1.5,-2.7 -4.4,-4.4 -8.3,-4.8 -0.6,-0.1 -1.1,-0.1 -1.7,-0.1 -3.5,0 -7.3,1 -10.8,2.9 C 4.1,-6.6 0,-0.7 0,4.4 c 0,1.4 0.2,2.7 0.9,3.9 1.5,2.7 4.5,4.4 8.4,4.8 0.6,0.1 1.1,0.1 1.7,0.1 3.5,0 7.2,-1 10.7,-2.9 6.6,-3.6 10.8,-9.4 10.8,-14.5 0,-1.4 -0.3,-2.8 -1,-4"
       transform="matrix(0.992126,0,0,0.992126,57.5582,143.513)"
       class=""
       inkscape:connector-curvature="0" />
    <path
       id="path4061"
       d="m 31.5,-8.2 c -1.5,-2.7 -4.4,-4.4 -8.3,-4.8 -0.6,-0.1 -1.1,-0.1 -1.7,-0.1 -3.5,0 -7.3,1 -10.8,2.9 C 4.1,-6.6 0,-0.7 0,4.4 c 0,1.4 0.2,2.7 0.9,3.9 1.5,2.7 4.5,4.4 8.4,4.8 0.6,0.1 1.1,0.1 1.7,0.1 3.5,0 7.2,-1 10.7,-2.9 6.6,-3.6 10.8,-9.4 10.8,-14.5 0,-1.4 -0.3,-2.8 -1,-4"
       transform="matrix(0.992126,0,0,0.992126,168.887,143.513)"
       class=""
       inkscape:connector-curvature="0" />
    <path
       id="path4063"
       d="M 3.5,3.5 C 3.4,3.2 2.5,-0.3 2.5,-0.5 2.4,-0.9 1.8,-1.2 1.3,-1.2 0.6,-1.2 0,-0.6 0,0.1 v 16.4 6.2 c 0,0.5 0.4,0.9 0.8,1.1 4.2,1.3 12.9,6.8 19.4,17.9 1.8,3.1 4.7,7.3 4.7,15.7 0,7.2 -1.1,14.8 -2.9,21.8 -0.3,1.1 -0.6,2.1 0.5,2.5 1.1,0.4 1.5,-0.4 1.9,-1.4 3.6,-8.8 4.5,-18 4.5,-24.2 V 54.2 C 28.4,41.3 21,31.8 21,31.8 21.3,31.8 11.8,19.5 9.1,15.3 5.4,9.6 3.6,3.9 3.5,3.5"
       transform="matrix(0.992126,0,0,0.992126,87.0662,69.1035)"
       class=""
       inkscape:connector-curvature="0" />
    <path
       id="path4065"
       d="m 145.699,35.8554 c 2.115,-0.675 2.97,-1.035 4.05,-1.755 2.115,-1.395 3.42,-3.87 3.42,-6.39 0,-4.275 -3.42,-7.155 -8.46,-7.155 -4.905,0 -9.045,3.06 -9.045,6.75 0,1.845 1.125,3.105 2.835,3.105 1.485,0 2.565,-1.08 2.565,-2.565 0,-0.765 -0.225,-1.305 -0.945,-2.025 -0.45,-0.405 -0.63,-0.72 -0.63,-1.035 0,-1.08 2.25,-2.205 4.365,-2.205 3.015,0 4.815,1.665 4.815,4.455 0,4.005 -2.835,7.785 -5.85,7.785 -0.135,0 -0.54,-0.045 -1.035,-0.09 -1.305,-0.09 -1.305,-0.09 -1.575,-0.09 -0.99,0 -1.53,0.45 -1.53,1.26 0,0.72 0.495,1.17 1.305,1.17 0.225,0 0.54,-0.045 0.9,-0.09 0.63,-0.135 1.305,-0.18 1.71,-0.18 2.115,0 3.555,1.89 3.555,4.68 0,2.16 -0.495,4.23 -1.485,5.94 -1.35,2.43 -3.42,3.6 -6.345,3.6 -2.52,0 -4.68,-1.26 -4.68,-2.7 0,-0.495 0.18,-0.675 0.9,-0.99 1.305,-0.585 1.845,-1.395 1.845,-2.61 0,-1.575 -1.26,-2.79 -2.88,-2.79 -1.935,0 -3.195,1.53 -3.195,3.87 0,4.365 3.33,7.11 8.73,7.11 6.795,0 11.97,-4.545 11.97,-10.575 0,-1.62 -0.495,-3.015 -1.44,-4.14 -0.99,-1.17 -1.89,-1.71 -3.87,-2.34"
       class=""
       inkscape:connector-curvature="0" />
    <polyline
       id="polyline4067"
       points="69.9598,55.3377 69.9598,36.7354 117.911,36.7354"
       stroke-linejoin="bevel"
       stroke-linecap="square"
       stroke-width="2.48"
       stroke="#000000"
       fill="none"
       class="" />
    <polyline
       id="polyline4069"
       points="165.574,36.7354 213.525,36.7354 213.525,55.3377"
       stroke-linejoin="bevel"
       stroke-linecap="square"
       stroke-width="2.48"
       stroke="#000000"
       fill="none"
       class="" />
  </g>
</svg>
